<svg width="749" height="749" viewBox="0 0 749 749" fill="none" xmlns="http://www.w3.org/2000/svg">
<path d="M662.461 287.331C643.616 259.409 601.312 243.245 599.035 209.84C598.196 197.526 603.32 185.467 603.424 173.124C603.979 106.313 498.954 55.1564 429.941 100.126C407.067 115.031 411.605 120.274 386.229 131.36C360.778 142.49 322.669 140.917 294.926 139.943C274.194 139.209 253.477 136.827 232.744 137.621C152.122 140.722 64.414 183.22 69.8518 291.541C71.9639 333.784 75.1996 350.068 57.4333 398.258C41.195 442.329 53.5535 503.028 62.916 518.053C72.1587 530.052 91.1533 543.235 110.463 543.579C134.82 543.999 159.192 544.418 183.55 544.703C265.281 545.706 347.027 545.601 428.758 544.373C461.549 543.879 653.817 554.005 662.461 523.251C668.947 504.826 672.347 506.968 670.774 484.618C666.984 431.124 700.884 344.27 662.461 287.331Z" fill="#A6ADBF"/>
<path d="M710.996 518.308C705.918 513.619 697.514 511.192 686.129 511.192H60.8637C51.1267 511.387 45.0598 513.38 38.7233 519.536C33.705 524.42 33.5702 530.891 36.4314 535.999C39.7419 538.831 44.8801 539.969 50.6624 540.284C52.1604 540.448 53.5086 540.538 54.5272 540.643C61.9872 541.332 69.5072 541.063 76.9672 541.662C78.8098 541.677 80.6074 541.931 82.36 542.441C84.607 543.25 85.5807 544.793 85.2811 547.084C85.371 547.249 85.4609 547.414 85.5508 547.579C85.5957 547.893 85.6856 548.208 85.8354 548.538C87.1986 551.504 89.88 552.822 93.1007 553.241C101.549 555.968 113.788 554.395 120.769 553.811C130.326 553.002 140.033 551.564 149.695 551.129C149.815 551.159 149.935 551.174 150.055 551.189C150.309 551.234 150.579 551.294 150.849 551.354C151.313 551.758 151.628 552.208 151.732 552.732C151.942 553.706 151.673 554.604 151.148 555.443C145.98 557.286 141.441 560.177 140.917 565.061C140.018 573.404 151.792 575.696 157.829 576.4C163.267 577.045 168.84 577.194 174.442 577.134C191.504 578.902 208.941 578.722 225.644 578.707C240.833 578.692 255.978 578.722 271.153 579.232C284.335 579.681 297.802 578.363 310.94 579.426C311.599 579.906 312.093 580.355 312.168 580.73C312.558 582.527 311.704 581.658 310.685 583.007C309.202 584.969 308.558 585.254 308.378 587.86C308.288 589.163 309.382 590.407 310.58 590.751C330.683 596.519 353.049 593.912 373.691 593.523C392.955 593.163 412.489 593.567 431.619 590.901C433.896 590.811 436.143 590.616 438.285 590.212C441.086 589.673 443.633 588.025 443.288 584.864C442.869 580.984 437.791 579.546 434.675 578.782C431.469 577.988 428.158 577.913 424.953 577.164C420.878 576.221 419.785 576.176 420.024 573.359C419.859 572.595 419.994 571.757 420.369 570.993C420.429 570.663 420.489 570.319 420.563 569.944C420.563 569.929 420.563 569.929 420.563 569.914C420.818 569.809 421.103 569.719 421.387 569.629C422.017 569.045 422.84 568.566 423.844 568.296C425.986 567.727 428.173 567.637 430.36 567.697C433.311 567.323 436.292 567.143 439.244 567.038C446.928 566.783 454.628 567.248 462.298 567.517C477.278 568.027 492.258 568.371 507.253 568.551C531.475 568.835 558.155 571.307 582.258 565.705C595.11 564.506 607.948 561.72 618.494 555.129C619.093 554.41 619.693 553.676 620.307 552.972C624.456 547.114 629.609 542.65 637.908 541.797C654.446 540.074 671.449 541.587 688.031 541.871C695.102 541.991 704.225 542.111 709.812 536.973C715.37 531.76 716.254 523.176 710.996 518.308Z" fill="#C5C8D6"/>
<path d="M555.533 493.937H267.288V237.434C267.288 157.83 331.807 93.3116 411.411 93.3116C491.014 93.3116 555.533 157.845 555.533 237.434V493.937V493.937Z" fill="#181852"/>
<g opacity="0.88">
<g opacity="0.88">
<path opacity="0.88" d="M397.33 221.644C395.337 221.644 395.337 224.955 397.33 224.955C399.322 224.955 399.322 221.644 397.33 221.644Z" fill="#9B99C9"/>
</g>
</g>
<g opacity="0.88">
<g opacity="0.88">
<path opacity="0.88" d="M428.024 359.984C426.031 359.984 426.031 363.37 428.024 363.37C430.181 363.37 430.181 359.984 428.024 359.984Z" fill="#9B99C9"/>
</g>
</g>
<g opacity="0.88">
<g opacity="0.88">
<path opacity="0.88" d="M497.066 173.408C495.074 173.408 495.074 176.794 497.066 176.794C499.523 176.794 499.523 173.408 497.066 173.408Z" fill="#9B99C9"/>
</g>
</g>
<g opacity="0.88">
<g opacity="0.88">
<path opacity="0.88" d="M512.556 214.813C510.563 214.813 510.563 218.199 512.556 218.199C514.713 218.199 514.713 214.813 512.556 214.813Z" fill="#9B99C9"/>
</g>
</g>
<g opacity="0.88">
<g opacity="0.88">
<path opacity="0.88" d="M402.228 150.399C400.086 150.399 400.086 153.785 402.228 153.785C404.535 153.77 404.535 150.399 402.228 150.399Z" fill="#9B99C9"/>
</g>
</g>
<g opacity="0.88">
<g opacity="0.88">
<path opacity="0.88" d="M278.164 336.72C276.171 336.72 276.171 340.106 278.164 340.106C280.456 340.106 280.456 336.72 278.164 336.72Z" fill="#9B99C9"/>
</g>
</g>
<g opacity="0.88">
<g opacity="0.88">
<path opacity="0.88" d="M367.564 242.331C365.108 242.331 365.108 246.226 367.564 246.226C370.186 246.241 370.186 242.331 367.564 242.331Z" fill="#9B99C9"/>
</g>
</g>
<g opacity="0.88">
<g opacity="0.88">
<path opacity="0.88" d="M295.675 274.359C293.368 274.359 293.368 277.744 295.675 277.744C297.832 277.744 297.832 274.359 295.675 274.359Z" fill="#9B99C9"/>
</g>
</g>
<g opacity="0.43">
<g opacity="0.43">
<path opacity="0.43" d="M320.917 287.541C318.774 287.541 318.774 290.927 320.917 290.927C323.223 290.927 323.223 287.541 320.917 287.541Z" fill="#9B99C9"/>
</g>
</g>
<g opacity="0.88">
<g opacity="0.88">
<path opacity="0.88" d="M515.791 224.955C513.799 224.955 513.799 228.34 515.791 228.34C518.098 228.34 518.098 224.955 515.791 224.955Z" fill="#9B99C9"/>
</g>
</g>
<g opacity="0.88">
<g opacity="0.88">
<path opacity="0.88" d="M533.288 365.737C530.831 365.737 530.831 369.122 533.288 369.122C535.595 369.122 535.595 365.737 533.288 365.737Z" fill="#9B99C9"/>
</g>
</g>
<g opacity="0.88">
<g opacity="0.88">
<path opacity="0.88" d="M478.027 138.101C474.491 138.101 474.491 143.389 478.027 143.389C481.562 143.389 481.562 138.101 478.027 138.101Z" fill="#9B99C9"/>
</g>
</g>
<g opacity="0.88">
<g opacity="0.88">
<path opacity="0.88" d="M496.991 282.088C495.898 282.088 494.954 283.017 494.954 284.126C494.954 285.234 495.883 286.163 496.991 286.163C498.085 286.163 499.029 285.234 499.029 284.126C499.029 283.017 498.1 282.088 496.991 282.088Z" fill="#9B99C9"/>
</g>
</g>
<g opacity="0.43">
<g opacity="0.43">
<path opacity="0.43" d="M504.796 336.511C506.583 336.511 508.032 335.062 508.032 333.275C508.032 331.488 506.583 330.039 504.796 330.039C503.009 330.039 501.56 331.488 501.56 333.275C501.56 335.062 503.009 336.511 504.796 336.511Z" fill="#9B99C9"/>
</g>
</g>
<g opacity="0.43">
<g opacity="0.43">
<path opacity="0.43" d="M309.037 154.189C309.699 154.189 310.236 153.653 310.236 152.991C310.236 152.329 309.699 151.792 309.037 151.792C308.376 151.792 307.839 152.329 307.839 152.991C307.839 153.653 308.376 154.189 309.037 154.189Z" fill="#9B99C9"/>
</g>
</g>
<g opacity="0.43">
<g opacity="0.43">
<path opacity="0.43" d="M545.587 270.494C546.248 270.494 546.785 269.957 546.785 269.295C546.785 268.634 546.248 268.097 545.587 268.097C544.925 268.097 544.388 268.634 544.388 269.295C544.388 269.957 544.925 270.494 545.587 270.494Z" fill="#9B99C9"/>
</g>
</g>
<g opacity="0.88">
<g opacity="0.88">
<path opacity="0.88" d="M288.215 208.417C286.867 208.417 285.728 209.555 285.728 210.903C285.728 212.252 286.867 213.39 288.215 213.39C289.563 213.39 290.702 212.252 290.702 210.903C290.702 209.555 289.563 208.417 288.215 208.417Z" fill="#9B99C9"/>
</g>
</g>
<g opacity="0.88">
<g opacity="0.88">
<path opacity="0.88" d="M356.224 168.465C357.97 168.465 359.385 167.05 359.385 165.304C359.385 163.559 357.97 162.144 356.224 162.144C354.479 162.144 353.064 163.559 353.064 165.304C353.064 167.05 354.479 168.465 356.224 168.465Z" fill="#9B99C9"/>
</g>
</g>
<g opacity="0.88">
<g opacity="0.88">
<path opacity="0.88" d="M457.789 209.96C456.695 209.96 455.751 210.888 455.751 211.997C455.751 213.105 456.68 214.034 457.789 214.034C458.882 214.034 459.826 213.105 459.826 211.997C459.826 210.888 458.897 209.96 457.789 209.96Z" fill="#9B99C9"/>
</g>
</g>
<g opacity="0.88">
<g opacity="0.88">
<path opacity="0.88" d="M429.177 123.285C427.934 123.285 426.93 124.289 426.93 125.532C426.93 126.776 427.934 127.779 429.177 127.779C430.42 127.779 431.424 126.776 431.424 125.532C431.424 124.289 430.42 123.285 429.177 123.285Z" fill="#9B99C9"/>
</g>
</g>
<g opacity="0.88">
<g opacity="0.88">
<path opacity="0.88" d="M451.512 172.42C452.133 172.42 452.636 171.917 452.636 171.296C452.636 170.676 452.133 170.173 451.512 170.173C450.892 170.173 450.389 170.676 450.389 171.296C450.389 171.917 450.892 172.42 451.512 172.42Z" fill="#9B99C9"/>
</g>
</g>
<g opacity="0.88">
<g opacity="0.88">
<path opacity="0.88" d="M316.632 192.553C315.868 192.553 315.239 193.182 315.239 193.946C315.239 194.71 315.868 195.339 316.632 195.339C317.396 195.339 318.025 194.71 318.025 193.946C318.025 193.182 317.411 192.553 316.632 192.553Z" fill="#9B99C9"/>
</g>
</g>
<path d="M410.347 93.2505H404.46C404.37 93.2505 404.355 93.4752 404.355 93.4902V183.13H410.347V93.2505Z" fill="#A6ADBF"/>
<path d="M410.347 190.621H404.355V494.714H410.347V190.621Z" fill="#A6ADBF"/>
<path d="M548.882 190.62C548.088 187.624 547.234 186.126 546.336 183.13H410.856H404.1H276.501C275.602 186.126 274.748 187.624 273.954 190.62H404.115H410.871H548.882Z" fill="#A6ADBF"/>
<path d="M113.803 380.866C112.335 378.799 110.418 377.676 108.335 377.361C111.811 370.8 114.357 363.624 111.421 357.018C108.395 350.202 101.385 349.528 95.5874 352.165C96.5761 349.364 97.4899 346.517 98.2838 343.641C99.8867 337.724 102.553 329.949 99.9166 323.972C96.2016 315.539 87.3184 317.291 81.0568 322.04C82.5248 309.846 83.0192 293.533 71.5295 288.095C66.1667 285.564 60.4293 287.481 56.7892 292.02C54.8867 294.387 53.7632 297.248 53.0891 300.289C52.1154 299.57 50.9919 299.016 49.7336 298.686C45.1198 297.443 40.0266 299.435 38.4087 304.214C35.1281 313.936 39.6371 324.721 45.1647 333.904C44.97 334.159 44.7752 334.413 44.5655 334.608C42.9027 334.533 41.2849 334.473 40.8954 334.503C38.184 334.668 35.4577 335.222 33.1208 336.705C28.492 339.642 26.6944 345.229 26.5895 350.547C26.4697 356.644 28.3572 362.816 30.7689 368.313C32.1471 371.459 33.8099 374.425 35.8022 377.226C36.9856 378.904 38.7383 380.552 40.1764 382.275C38.8432 382.529 37.0905 382.874 36.8209 382.994C36.4164 383.173 36.0419 383.368 35.6974 383.593C35.4427 383.668 35.188 383.728 34.9184 383.818C29.3758 385.825 26.5895 391.967 26.7543 397.674C26.979 405.074 31.9524 411.635 35.7423 417.552C38.0792 421.193 40.491 424.773 42.9327 428.338C39.4873 427.14 35.8921 426.915 32.8512 429.626C28.5819 433.446 29.4956 439.393 31.2483 444.067C33.2406 449.355 36.2067 454.194 39.6671 458.733C41.0003 460.605 42.3335 462.373 43.5619 463.976C38.963 462.313 34.9334 462.972 36.2666 470.102C37.3452 475.855 41.3149 480.468 45.5093 484.603C50.0632 489.097 54.4224 493.501 58.3621 498.34C58.2123 498.489 58.0325 498.639 57.8228 498.744C59.8301 501.186 61.8075 503.628 63.7249 506.144C64.399 506.339 65.0881 506.504 65.7772 506.654C67.9044 507.103 70.1663 507.522 72.4433 507.717C74.5555 505.455 76.6527 503.178 78.7199 500.871C81.3714 499.149 83.8281 497.156 86.1051 494.969C94.7335 488.513 102.703 480.963 106.792 470.702C108.83 465.593 109.953 459.377 108.47 454.029C107.841 451.782 106.343 449.954 104.141 448.501C103.062 447.797 101.909 447.483 100.726 447.453C100.501 447.378 100.261 447.303 100.036 447.243C102.733 438 106.118 428.218 105.534 418.811C105.474 417.747 106.058 417.118 106.807 416.893C106.223 415.89 105.519 414.961 104.68 414.152C109.369 408.52 112.874 401.374 114.642 395.202C115.96 390.648 116.709 384.941 113.803 380.866Z" fill="#7481AD"/>
<path d="M71.5449 288.111C66.1821 285.579 60.4447 287.497 56.8046 292.036C54.9021 294.402 53.7786 297.264 53.1045 300.304C52.1308 299.585 51.0073 299.031 49.749 298.702C45.1352 297.458 40.042 299.451 38.4241 304.229C35.1435 313.951 39.6525 324.737 45.1801 333.92C44.9854 334.174 44.7906 334.429 44.5809 334.624C42.9181 334.549 41.3003 334.489 40.9108 334.519C38.1994 334.684 35.4731 335.238 33.1362 336.721C28.5074 339.657 26.7098 345.244 26.6049 350.562C26.4851 356.659 28.3725 362.831 30.7843 368.329C32.1625 371.474 33.8253 374.44 35.8176 377.242C37.001 378.92 38.7537 380.567 40.1918 382.29C38.8585 382.545 37.1059 382.889 36.8362 383.009C36.4318 383.189 36.0573 383.384 35.7127 383.608C35.4581 383.683 35.2034 383.743 34.9338 383.833C29.3912 385.84 26.6049 391.982 26.7697 397.689C26.9944 405.09 31.9677 411.651 35.7577 417.568C38.0946 421.208 40.5063 424.788 42.9481 428.354C39.5027 427.155 35.9075 426.93 32.8665 429.642C28.5972 433.462 29.511 439.409 31.2637 444.083C33.256 449.37 36.2221 454.209 39.6824 458.748C41.0157 460.62 42.3489 462.388 43.5772 463.991C38.9784 462.328 34.9488 462.987 36.282 470.118C37.3605 475.87 41.3302 480.484 45.5246 484.618C47.8765 486.94 50.1684 489.232 52.3855 491.584C52.6551 491.449 52.8199 491.359 52.8199 491.359C49.1947 486.371 43.5023 479.66 43.5323 472.754C43.5473 468.395 49.0749 461.789 55.0669 459.527C48.8502 448.577 45.1501 435.873 53.9434 426.571C50.6628 420.714 40.1169 414.123 39.7124 400.071C39.3379 387.248 52.3555 390.679 51.6964 389.435C46.3935 379.369 37.8399 342.623 53.509 345.155C54.4377 345.304 54.9021 344.091 55.2916 343.462C53.0746 331.493 51.9511 314.386 63.5755 310.656C64.0249 308.049 64.8189 305.532 66.242 303.226C68.8485 299.001 73.9117 295.975 78.99 295.646C77.4021 292.395 75.0203 289.744 71.5449 288.111Z" fill="#8C98BF"/>
<path d="M89.3857 528H52.8195L43.5169 490.116H98.6883L89.3857 528Z" fill="#363666"/>
<path d="M710.576 448.187C715.939 441.416 723.624 433.626 721.901 424.189C721.542 422.196 720.673 420.144 718.935 419.11C716.299 417.538 712.958 418.901 710.217 420.279C714.561 411.77 720.598 400.85 718.875 391.038C718.546 389.135 717.632 386.754 716.314 384.671C715.4 382.904 714.097 381.316 712.269 380.058C708.15 377.196 703.715 377.811 699.596 379.638C706.172 369.916 710.711 358.936 712.614 347.206C714.606 334.953 713.647 317.201 698.218 314.91C698.188 314.91 698.158 314.91 698.113 314.91C702.502 307.449 705.903 299.405 706.652 291.586C707.505 282.538 700.809 280.396 695.432 283.317C696.465 279.017 697.319 274.688 697.933 270.314C698.023 260.487 696.061 250.211 687.927 245.342C676.886 238.736 664.902 251.245 660.528 261.326C656.708 270.134 655.765 280.201 655.6 290.252C652.289 286.522 647.93 284.141 643.166 286.148C636.455 288.979 633.354 297.308 632.815 304.558C632.171 313.202 633.984 322.819 638.058 330.728C635.886 330.579 633.714 330.938 631.767 332.017C625.924 335.237 624.846 343.581 626.224 349.873C627.557 355.925 630.733 361.467 634.403 366.501C619.872 374.71 621.925 395.607 627.842 408.804C631.767 417.567 636.995 425.956 642.867 433.941C641.144 433.686 639.361 433.896 637.564 434.839C631.077 438.24 633.564 446.419 635.631 451.707C638.043 457.879 641.204 463.646 644.964 468.964C643.721 469.009 642.522 469.383 641.459 470.282C637.564 473.533 642.417 481.008 644.5 483.869C648.889 489.921 655.225 494.04 661.442 497.995C662.221 498.489 663.24 498.355 663.944 497.815C664.138 498.714 663.719 499.523 663.015 500.047C665.531 503.268 667.928 506.564 670.01 510.129C670.385 510.758 670.445 511.387 670.31 511.941C671.494 512.286 672.737 512.136 673.755 511.567C674.13 511.537 674.505 511.477 674.864 511.402C674.984 511.477 675.089 511.567 675.224 511.642C677.8 513.2 680.946 511.657 681.83 508.96C683.208 504.676 684.811 500.512 686.563 496.422C686.204 496.063 685.949 495.628 685.874 495.119C685.23 495.433 684.496 495.389 683.852 495.119C683.942 494.46 684.002 493.801 684.062 493.142C684.721 491.194 685.17 489.232 685.395 487.209C688.586 485.711 691.537 483.435 694.278 481.487C698.083 478.776 702.667 475.63 704.195 470.956C706.187 464.859 702.577 463.616 698.203 464.365C698.173 464.38 698.128 464.365 698.083 464.38C697.694 464.455 697.304 464.53 696.915 464.635C696.6 464.635 696.285 464.725 695.986 464.889C695.731 464.964 695.477 465.039 695.222 465.129C700.675 459.811 705.843 454.179 710.576 448.187Z" fill="#7481AD"/>
<path d="M687.597 524.18H651.046L641.743 486.296H696.915L687.597 524.18Z" fill="#363666"/>
<path d="M687.957 245.342C676.917 238.736 664.933 251.245 660.559 261.326C656.739 270.134 655.795 280.201 655.63 290.252C652.32 286.522 647.96 284.141 643.197 286.148C636.486 288.979 633.385 297.308 632.846 304.558C632.202 313.202 634.014 322.819 638.089 330.728C635.917 330.579 633.744 330.938 631.797 332.017C625.955 335.237 624.876 343.581 626.254 349.873C627.588 355.925 630.763 361.467 634.434 366.501C619.903 374.71 621.955 395.607 627.872 408.804C631.797 417.567 637.025 425.956 642.897 433.941C641.175 433.686 639.392 433.896 637.594 434.839C631.108 438.24 633.595 446.419 635.662 451.707C638.074 457.879 641.234 463.646 644.994 468.964C643.751 469.009 642.553 469.383 641.489 470.282C638.149 473.068 641.249 478.955 643.511 482.386C643.766 481.802 643.976 481.187 644.051 480.468C644.35 477.847 646.148 476.574 648.305 475.555C649.009 475.225 649.593 474.671 650.058 474.027C642.283 461.459 635.048 445.52 647.766 437.101C649.009 436.277 650.222 436.008 651.346 436.113C649.324 433.296 647.301 430.495 645.399 427.634C645.354 427.619 645.309 427.589 645.264 427.589C645.249 427.514 645.234 427.439 645.219 427.379C639.557 418.856 634.928 409.883 634.359 399.022C634.014 392.611 635.362 383.518 642.658 381.406C644.096 380.986 645.474 380.926 646.777 381.106C643.691 374.125 641.16 366.92 640.935 359.31C640.665 350.337 646.178 341.993 653.863 339.941C653.653 338.967 653.443 338.024 653.263 337.035C650.372 327.732 648.35 313.232 655.211 306.775C657.698 302.371 661.757 299.3 667.989 298.446C668.288 293.009 669.007 287.616 670.475 282.433C673.771 268.996 681.006 255.424 694.683 252.683C693.125 249.672 690.968 247.14 687.957 245.342Z" fill="#8C98BF"/>
<path d="M617.565 486.341C622.569 481.083 626.194 474.327 625.55 467.526C624.561 456.98 616.292 460.305 609.896 464.859C614.584 459.991 619.348 453.475 617.685 447.183C617.281 445.655 615.543 444.621 614 445.086C611.618 445.805 609.506 447.228 607.679 449.025C607.843 446.179 607.769 443.318 607.424 440.442C606.855 435.603 606.196 428.907 599.919 429.207C587.89 429.776 588.969 446.014 591.231 455.796C590.032 454.868 588.684 454.104 587.156 453.504C585.343 452.8 583.321 454.598 583.366 456.396C583.411 458.208 583.606 460.141 583.965 462.058C583.456 461.744 582.932 461.459 582.392 461.234C578.602 459.646 573.764 460.815 572.071 464.799C570.903 467.526 571.547 470.821 572.805 473.982C574.064 478.566 576.655 483 578.707 487.15C579.936 489.636 581.224 492.093 582.527 494.535C580.026 494.355 578.468 496.572 579.486 498.954C581.374 503.313 583.726 507.837 588.235 509.964C589.418 510.518 590.557 510.279 591.395 509.665C592.204 510.938 592.998 512.226 593.822 513.499C595.695 516.361 599.994 514.308 599.425 511.522C599.425 511.522 599.425 511.522 599.44 511.522C600.413 512.196 601.866 512.286 602.855 511.762C603.529 511.402 604.158 510.998 604.788 510.593C611.648 507.882 617.296 502.055 619.932 495.179C621.206 491.943 621.056 488.033 617.565 486.341Z" fill="#7481AD"/>
<path d="M599.934 429.207C587.905 429.776 588.984 446.015 591.246 455.797C590.048 454.868 588.699 454.104 587.171 453.505C585.359 452.801 583.337 454.598 583.381 456.396C583.426 458.208 583.621 460.141 583.981 462.058C583.471 461.744 582.947 461.459 582.408 461.234C578.618 459.646 573.779 460.815 572.087 464.8C570.918 467.526 571.562 470.821 572.821 473.982C574.079 478.566 576.67 483 578.723 487.15C579.951 489.636 581.239 492.093 582.543 494.535C580.041 494.355 578.483 496.572 579.502 498.954C580.685 501.68 582.048 504.467 583.996 506.684C583.277 500.587 584.505 494.745 590.422 491.898C587.381 487.569 583.846 483.629 583.786 477.817C583.741 473.937 586.213 469.174 589.703 467.811C584.7 457.864 589.194 455.557 596.938 459.107C595.635 454.224 595.815 447.063 596.923 442.18C597.972 437.536 601.342 433.611 605.657 432.578C604.638 430.525 602.93 429.072 599.934 429.207Z" fill="#8C98BF"/>
<path d="M613.236 531.401H585.448L578.378 502.609H620.307L613.236 531.401Z" fill="#363666"/>
<path d="M328.317 524.585H315.059L311.749 509.47H329.68L328.317 524.585Z" fill="#E2E9FB"/>
<path d="M354.517 530.696C339.102 528.315 337.335 527.191 332.676 521.079C330.983 518.862 327.418 520.495 327.882 522.667C324.961 523.836 321.561 524.09 319.119 522.787C318.924 522.787 318.729 522.742 318.535 522.577C317.651 521.768 316.512 520.675 315.224 520.645C314.82 520.63 314.43 520.75 314.086 520.914C313.411 524.135 313.367 527.371 313.262 530.666C313.217 532.075 313.127 533.483 313.052 534.876C313.097 534.996 313.142 535.13 313.202 535.235C313.187 535.355 313.172 535.46 313.142 535.58C316.168 535.355 319.209 535.295 322.25 535.49C322.549 534.591 322.789 533.677 322.984 532.749C323.074 532.794 323.223 532.749 323.223 532.644C330.144 536.479 324.107 536.404 339.072 536.194C340.151 536.179 344.375 536.104 345.439 536.104C349.423 536.119 358.277 532.299 354.517 530.696Z" fill="#5E1434"/>
<path d="M318.07 531.955L301.802 530.936L298.866 516.69H318.684L318.07 531.955Z" fill="white"/>
<path d="M339.926 534.486C339.701 534.486 326.309 533.078 319.583 526.292C317.935 524.63 317.771 527.85 314.505 530.022C311.584 531.191 307.869 531.4 305.173 529.917C304.124 529.348 303.15 528.015 301.862 527.985C301.472 527.97 301.098 528.09 300.753 528.255C299.615 531.161 300.753 537.288 301.607 543.31L311.764 543.399C311.794 542.276 312.108 540.418 312.123 540.314C314.19 541.467 316.437 542.68 320.722 542.86C332.736 543.325 339.357 542.036 345.873 539.58C351.026 537.617 352.015 534.606 339.926 534.486Z" fill="#731C42"/>
<path d="M368.208 268.561C366.156 260.158 346.577 253.357 337.979 253.881C337.739 253.896 337.514 253.956 337.32 254.031C337.275 254.031 337.23 254.016 337.185 254.016C335.657 253.791 334.668 255.094 334.683 256.233C334.369 256.353 334.144 256.682 334.249 257.012C334.653 258.165 335.147 259.259 335.732 260.278C337.005 265.086 341.184 267.902 345.439 270.224C346.368 270.958 347.476 271.662 348.6 271.992C348.779 273.085 348.779 274.194 349.094 275.272C349.423 276.381 350.877 277.13 351.94 276.471C352.779 276.501 357.558 279.901 358.426 279.167C360.988 277.025 368.987 271.737 368.208 268.561Z" fill="#ACBCE6"/>
<path d="M331.537 512.99L312.333 516.69C310.88 504.721 309.217 419.755 309.667 391.233C309.891 377.166 305.322 364.658 305.862 350.577C306.161 342.638 313.037 320.033 320.377 314.325C329.455 307.255 334.713 311.779 344.495 313.352C350.307 330.264 346.113 359.894 344.989 377.196C339.207 466.342 335.911 477.098 331.537 512.99Z" fill="#C79020"/>
<path d="M460.38 254.585C458.732 253.072 457.13 251.275 455.152 250.196C455.092 250.166 455.032 250.136 454.973 250.106C454.928 249.792 454.748 249.507 454.403 249.282C452.471 248.054 450.419 246.915 448.321 246.032C446.029 244.623 443.633 243.41 441.116 243.125C440.172 242.916 439.229 242.826 438.375 242.946C437.416 243.08 436.442 243.425 435.469 243.874C433.776 244.474 432.143 245.193 430.6 246.046C428.773 247.005 427.035 248.099 425.357 249.357C424.279 250.166 425.028 251.829 426.061 251.724C426.331 252.009 426.735 252.158 427.26 252.024C427.739 251.904 428.203 251.769 428.653 251.619C428.383 251.979 428.368 252.458 428.563 252.862C428.593 253.132 428.728 253.387 428.922 253.596C428.892 253.656 428.847 253.701 428.817 253.761C428.293 254.78 429.432 256.203 430.54 255.454C430.555 255.439 430.585 255.424 430.6 255.409C430.585 255.514 430.6 255.604 430.615 255.709C430.42 256.413 430.9 257.237 431.559 257.386C431.948 257.941 432.757 258.195 433.431 257.566C434.27 256.802 435.094 256.023 435.933 255.259C436.248 254.975 437.296 254.196 437.955 253.536C438.33 254.226 438.734 254.915 439.169 255.574C439.199 255.619 439.244 255.664 439.273 255.694C439.109 256.308 439.034 256.922 439.109 257.536C439.363 259.618 441.461 260.832 442.974 262.03C444.217 263.019 446.014 261.296 444.756 260.292C443.827 259.543 441.625 258.345 441.58 256.982C441.565 256.562 441.685 256.098 441.865 255.634C443.962 255.049 446.074 254.69 448.247 254.57C448.336 254.57 448.411 254.555 448.486 254.54C448.591 254.645 448.711 254.75 448.816 254.855C449.655 255.769 450.508 256.622 450.179 257.851C449.864 259.004 448.621 260.128 447.767 260.922C446.584 262.015 448.366 263.768 449.55 262.659C451.347 260.982 453.699 258.39 452.561 255.813C452.186 254.945 451.542 254.121 450.853 253.387C451.722 254.061 452.561 254.78 453.31 255.589C454.943 257.386 455.422 259.543 456.486 261.581C456.486 261.611 456.471 261.641 456.471 261.656C456.471 261.716 456.471 261.761 456.471 261.82C456.485 262.51 457.04 263.019 457.729 263.049C457.789 263.049 457.834 263.049 457.894 263.064C458.298 263.079 458.807 262.824 458.987 262.45C459.062 262.285 459.107 262.135 459.137 261.985C459.167 261.88 459.167 261.775 459.167 261.656C459.152 260.802 458.538 260.023 458.208 259.154C457.639 257.656 457.07 256.308 456.066 255.02C455.137 253.806 454.044 252.773 452.86 251.814C452.965 251.859 453.055 251.919 453.16 251.964C453.31 252.038 453.445 252.128 453.594 252.203C453.684 252.248 453.774 252.278 453.864 252.308C455.647 253.282 457.1 254.96 458.583 256.308C459.781 257.416 461.564 255.679 460.38 254.585Z" fill="#E3BBAF"/>
<path d="M320.961 518.862C320.961 518.862 329.665 463.257 331.193 434.39C331.747 423.919 334.279 397.599 336.226 372.433C336.136 360.584 337.245 336.556 335.926 324.736C335.627 324.167 317.98 317.831 314.325 317.621C310.715 317.411 300.109 314.7 300.109 314.7C290.252 333.47 288.739 345.933 289.069 353.019C289.878 369.991 291.481 440.277 296.604 521.484C296.619 521.484 321.006 518.353 320.961 518.862Z" fill="#E0A31B"/>
<path d="M425.702 248.144C427.514 251.334 432.323 256.173 433.431 257.581C433.431 257.581 408.01 293.009 394.169 293.174C391.502 293.204 384.926 293.443 382.514 293.548C377.286 293.788 372.028 293.293 366.95 292.11C362.037 290.957 343.866 284.965 339.567 283.496C336.96 282.598 334.773 281.294 334.039 278.538C333.155 275.243 333.59 269.94 335.192 266.959C336.016 265.431 337.514 264.367 339.057 263.528C351.506 256.757 348.929 259.663 376.298 268.382C378.2 268.981 388.027 269.85 391.293 268.382C395.352 266.569 421.537 251.065 425.702 248.144Z" fill="#ACBCE6"/>
<path d="M341.799 217.51C342.697 217.135 343.656 216.865 344.66 216.761C348.659 216.311 352.839 216.566 354.636 230.093C354.726 230.767 354.681 234.647 354.622 235.321C354.367 238.017 352.419 239.605 350.262 240.639C347.611 241.912 343.746 254.076 343.506 257.386C343.312 260.008 343.282 260.113 341.484 262.27C340.78 263.109 338.024 269.985 336.346 270.374C332.736 271.213 329.32 269.236 326.983 266.659C325.006 264.472 323.403 261.85 322.295 259.139C321.126 256.278 318.355 254.091 318.969 250.795C319.418 248.413 330.069 231.321 333.874 225.059C335.777 221.914 338.443 218.903 341.799 217.51Z" fill="#E3BBAF"/>
<path d="M330.968 229.808C326.279 237.463 319.329 248.878 318.969 250.795C318.969 250.825 318.969 250.84 318.969 250.87C319.628 251.364 320.602 251.394 321.096 250.481C324.676 243.874 328.736 237.598 333.275 231.606C334.354 230.168 332.211 228.79 330.968 229.808Z" fill="#EBCEC5"/>
<path d="M346.742 268.516C346.652 268.531 346.547 268.531 346.442 268.516C346.532 268.561 346.637 268.576 346.742 268.516Z" fill="#DDEDFB"/>
<path d="M351.251 270.883C350.637 259.888 344.884 259.663 344.884 259.663C335.118 252.743 321.546 248.039 319.943 247.619C319.718 247.919 310.805 267.588 310.401 269.655C310.356 269.775 299.435 319.613 299.435 319.613L345.154 321.725C353.843 287.331 351.775 280.426 351.251 270.883Z" fill="#C4D3FB"/>
<path opacity="0.42" d="M317.186 256.847C318.64 254.061 320.722 251.469 322.34 248.773C322.4 248.668 322.415 248.563 322.459 248.443C321.201 247.994 320.287 247.694 319.958 247.604C319.868 247.724 318.415 251.095 316.602 254.84C316.467 255.109 316.033 255.394 315.898 255.664C314.445 258.66 312.962 261.94 311.899 264.786C312.872 264.112 314.535 261.955 317.186 256.847Z" fill="white"/>
<path d="M347.251 255.064C346.967 254.81 344.076 254.375 344.076 254.375C343.686 255.184 343.656 256.203 343.656 256.203C346.098 262.554 348.09 270.269 348.255 277.055C348.285 278.343 351.371 286.343 351.805 285.234C354.442 278.613 351.071 260.877 347.251 255.064Z" fill="#5E1434"/>
<path d="M343.611 328.466C345.394 328.122 347.057 326.953 348.24 325.5C348.974 314.865 351.745 279.347 351.236 283.107C349.453 296.559 335.402 286.912 335.402 296.035C335.762 303.12 337.904 316.857 339.372 325.755C340.061 327.523 341.334 328.901 343.611 328.466Z" fill="#5E1434"/>
<path d="M345.454 270.224C345.454 270.224 347.326 256.577 317.381 254.69C316.572 254.645 315.943 255.469 315.599 256.188C298.641 291.735 303.21 307.464 296.934 321.126C307.539 324.587 318.684 328.736 326.699 331.418C328.721 332.092 330.908 332.122 332.901 331.358C332.915 331.358 332.915 331.343 332.93 331.343C335.822 330.234 337.664 328.107 338.803 325.56C339.267 321.681 339.612 317.936 339.671 317.351C340.226 311.524 340.54 299.166 341.889 290.163C342.563 285.714 348.255 278.134 345.454 270.224Z" fill="#731C42"/>
<path d="M327.553 284.71C329.785 286.298 332.481 287.796 332.721 290.687C332.886 292.679 331.687 294.522 329.994 295.615C323.388 299.87 316.318 298.357 311.884 292.455C309.876 289.788 308.468 284.77 308.483 281.459C308.528 274.029 310.73 268.771 314.835 263.498C316.482 261.371 320.138 262.36 320.197 265.026C320.197 265.236 320.167 265.416 320.093 265.55C318.759 267.812 321.366 280.321 327.553 284.71Z" fill="#ACBCE6"/>
<path d="M452.621 306.386C446.898 305.951 441.176 305.966 435.454 306.401C428.068 305.966 416.519 306.416 415.515 306.101C415.335 306.131 415.171 306.191 415.021 306.281C414.976 306.311 414.122 310.086 414.137 310.67C414.182 312.573 414.362 317.95 414.437 318.16C414.437 318.16 429.417 311.165 432.547 310.535C439.708 309.667 444.367 309.592 451.977 309.082C454.044 308.962 454.553 306.536 452.621 306.386Z" fill="#E3BBAF"/>
<path d="M387.922 304.064C379.938 302.431 374.53 302.446 369.871 300.993C365.976 299.78 361.363 293.982 361.303 293.878C358.651 289.054 346.817 272.037 345.753 270.838C341.933 264.382 334.458 261.536 334.219 261.386C333.665 261.027 328.706 259.558 328.077 259.379C317.816 256.757 312.543 266.195 312.063 267.528C311.734 268.172 311.599 268.621 311.554 268.996C309.487 273.07 309.007 278.014 310.625 282.388C312.258 286.792 315.778 290.223 320.272 291.661C321.501 292.05 322.924 292.335 324.377 292.41C328.436 297.248 332.96 301.847 336.93 305.592C341.664 310.056 344.675 315.194 348.839 319.329C351.985 322.459 356.239 324.587 361.303 324.647C365.018 324.691 374.5 324.781 378.2 324.632C393.225 324.017 401.599 321.651 416.025 318.16C416.399 314.34 417.508 309.786 417.702 306.041C388.926 303.39 391.173 304.468 387.922 304.064Z" fill="#C4D3FB"/>
<path d="M449.954 294.207C447.108 294.537 444.277 295.046 441.476 295.735C439.723 296.155 437.955 296.664 436.472 297.683C435.019 298.671 433.791 300.304 433.761 302.132C433.731 303.615 434.705 305.562 436.322 305.787C437.656 305.981 439.303 305.457 440.667 305.427C442.749 305.397 444.936 305.098 446.943 305.802C447.587 305.802 448.576 306.491 449.16 306.745C450.808 307.435 452.396 308.154 454.224 308.183C455.392 308.198 456.515 307.839 457.669 307.719C459.212 307.554 460.56 307.749 461.264 306.146C461.714 305.143 461.893 303.929 461.953 302.836C462.028 301.068 461.459 299.27 460.395 297.877C459.362 296.514 457.894 295.525 456.276 294.971C454.883 294.492 453.04 293.908 451.572 294.042C451.048 294.087 450.494 294.132 449.954 294.207Z" fill="#F0B52B"/>
<path d="M443.468 294.237C443.782 291.795 444.142 289.354 444.546 286.927C444.711 285.908 446.314 286.223 446.149 287.226C445.835 289.114 445.535 291.016 445.28 292.904C445.176 293.713 445.056 294.537 444.966 295.346C444.906 295.84 444.666 296.724 444.591 297.503C446.209 295.061 447.827 292.634 449.445 290.193C450.014 289.324 451.257 290.372 450.688 291.226C449.025 293.728 447.378 296.215 445.715 298.716C445.445 299.121 445.026 299.106 444.726 298.881C444.891 299.69 443.558 300.079 443.138 299.226C442.509 297.952 443.288 295.585 443.468 294.237Z" fill="white"/>
<path d="M448.306 303.315C447.183 301.847 447.363 299.315 445.775 298.222C443.408 296.589 440.487 298.701 438.644 300.019C437.221 301.038 435.349 301.308 433.656 300.843C432.068 300.409 430.99 299.181 429.192 299.57C427.829 299.87 426.69 300.873 426.061 302.102C425.432 303.33 425.282 304.753 425.432 306.116C425.462 306.431 425.537 306.775 425.762 306.985C427.02 308.139 429.327 307.15 430.765 307.075C433.057 306.94 435.349 306.85 437.641 306.79C439.738 306.73 442.075 306.311 444.142 306.506C446.763 306.76 448.981 307.27 451.632 306.611C452.156 306.491 452.741 306.251 452.875 305.742C452.995 305.277 452.636 304.798 452.186 304.603C451.123 304.154 449.954 304.618 448.906 303.899C448.681 303.734 448.486 303.525 448.306 303.315Z" fill="#942254"/>
<path d="M446.434 257.222C445.146 257.222 443.977 258.21 443.947 259.514C443.932 260.667 444.726 261.85 445.925 262.075C446.104 262.105 446.299 262.105 446.479 262.09C446.644 262.105 446.808 262.105 446.973 262.075C448.142 261.835 448.951 260.697 448.936 259.558C448.921 258.225 447.752 257.207 446.434 257.222Z" fill="#C4D3FB"/>
<path d="M469.383 284.994C470.147 274.508 458.792 262.51 445.82 262.51C432.847 262.51 422.676 274.508 422.256 284.994H469.383Z" fill="#ACBCE6"/>
<path d="M447.677 263.199C447.662 262.375 447.662 261.536 447.647 260.712C447.632 258.944 444.816 258.944 444.831 260.712C444.846 261.716 444.861 262.734 444.876 263.738C444.891 265.266 447.243 265.64 447.632 264.097C447.647 264.037 447.662 263.978 447.677 263.903C447.752 263.648 447.737 263.423 447.677 263.199Z" fill="#C4D3FB"/>
<path d="M379.443 302.716C375.129 314.086 377.706 330.998 377.676 337.065C389.075 337.919 390.289 337.29 401.689 338.144C400.715 322.789 400.67 318.804 403.591 304.424C391.922 303.435 379.653 302.162 379.443 302.716Z" fill="white"/>
<path d="M468.769 305.966H410.347V307.464H468.769V305.966Z" fill="white"/>
<path d="M347.326 233.164C347.491 234.062 350.068 236.22 352.569 234.871C354.532 233.823 354.142 231.636 353.917 230.407L347.326 233.164Z" fill="white"/>
<path d="M349.528 213.869C345.079 215.892 340.241 216.146 335.867 217.51C332.451 218.573 331.268 219.397 330.069 227.591C329.23 233.328 334.129 232.325 335.073 231.711C334.623 231.231 334.593 229.808 334.788 229.044C335.058 228.011 336.061 227.351 337.05 227.082C337.694 226.902 338.413 226.887 339.057 227.082C339.357 226.348 339.627 225.584 340.061 224.895C340.75 223.801 341.679 222.977 342.787 222.318C343.506 221.884 343.896 221.285 344.031 220.655C346.847 220.116 349.498 219.742 352.285 218.483C355.46 217.03 352.704 212.431 349.528 213.869Z" fill="#C79020"/>
<path d="M338.863 259.738L340.75 265.206C340.87 265.535 341.319 265.61 341.529 265.326L345.004 260.742L339.327 259.244C339.027 259.169 338.758 259.454 338.863 259.738Z" fill="#E0A31B"/>
<path d="M343.626 261.356L347.536 257.057C347.88 256.682 348.495 256.817 348.644 257.296L350.307 262.599C350.472 263.109 349.963 263.573 349.468 263.393L343.626 261.356Z" fill="#E0A31B"/>
<path d="M447.812 264.172C448.037 263.723 448.217 263.259 448.366 262.779C448.366 262.764 448.366 262.734 448.381 262.719C448.142 262.689 447.902 262.644 447.662 262.614C447.662 262.33 447.662 262.045 447.647 261.775C448.127 261.491 448.486 261.056 448.696 260.547C448.711 259.693 448.606 258.854 448.351 258.09C447.887 257.551 447.168 257.207 446.404 257.207C445.116 257.207 443.947 258.195 443.917 259.499C443.902 260.248 444.247 261.026 444.831 261.521C444.831 261.865 444.846 262.21 444.846 262.554C432.338 263.124 422.646 274.748 422.241 284.98H431.798C431.679 278.089 433.596 271.138 447.812 264.172Z" fill="#C4D3FB"/>
<path d="M342.877 215.892C340.495 216.401 338.129 216.806 335.882 217.495C335.327 217.659 334.833 217.839 334.384 218.034C333.904 218.274 333.44 218.558 332.99 218.888C331.627 220.086 330.848 222.303 330.084 227.576C330.069 227.666 330.069 227.756 330.054 227.846C330.354 228.1 330.728 228.25 331.133 228.22C332.631 228.071 332.571 223.337 333.739 221.704C335.911 218.648 340.241 218.693 342.727 216.176C342.802 216.086 342.817 215.982 342.877 215.892Z" fill="#E0A31B"/>
<path d="M551.249 403.486C549.362 400.85 547.354 398.228 544.748 396.296C541.482 393.869 537.482 392.641 533.483 391.862C526.262 390.439 518.817 390.319 511.492 390.963C498.34 392.116 485.382 395.787 473.787 402.108C467.9 405.329 461.863 410.018 461.039 416.669C460.44 421.507 462.822 426.271 465.923 430.046C474.222 440.127 487.674 444.951 500.736 445.221C513.799 445.49 526.607 441.715 538.831 437.131C544.478 435.004 550.545 432.278 553.166 426.825L556.672 415.905C556.447 411.321 553.9 407.216 551.249 403.486Z" fill="#E3BBAF"/>
<path d="M517.814 346.263C517.649 345.454 517.439 344.615 516.93 343.971C515.986 342.772 514.248 342.488 512.72 342.667C511.192 342.832 509.709 343.342 508.167 343.357L507.073 346.308C506.803 350.397 506.489 354.637 504.616 358.277C503.807 359.865 502.699 361.303 501.98 362.92C501.246 364.553 500.901 366.486 501.665 368.089C502.264 369.377 503.478 370.261 504.646 371.07C505.215 371.459 505.845 371.864 506.534 371.834C507.118 371.804 507.627 371.459 508.092 371.115C515.672 365.572 519.611 355.475 517.814 346.263Z" fill="#E3BBAF"/>
<path d="M491.823 425.642C490.131 421.148 484.918 420.713 481.967 422.81C480.738 422.061 479.39 421.447 477.922 421.013C466.357 417.642 465.309 427.08 463.316 436.068C462.058 441.73 462.373 455.242 461.099 478.386C460.335 494.864 457.594 527.715 457.369 528.419C454.343 538.052 447.273 542.8 445.7 546.201C447.872 546.156 453.13 543.414 455.167 542.725C460.605 540.883 464.859 538.276 468.05 533.573C471.54 528.434 477.592 509.245 478.776 505.26C482.401 493.142 485.457 487.434 488.992 475.27C493.396 460.081 497.621 440.981 491.823 425.642Z" fill="#E3BBAF"/>
<path d="M537.033 310.431C535.22 308.169 533.872 306.176 531.715 304.094C529.693 302.162 526.307 289.668 527.041 287.931C529.034 283.242 528.884 277.19 527.895 272.232C526.981 267.678 524.06 264.202 519.671 262.629C516.615 261.536 513.949 262.03 511.717 263.513C509.41 264.712 507.418 265.745 505.86 267.258C501.965 269.655 501.725 276.036 502.19 280.381C502.684 284.995 504.452 289.623 508.511 291.196C509.754 295.645 510.518 300.124 510.773 304.678C510.743 307.674 510.623 310.655 510.429 313.636C510.099 318.759 502.774 336.825 505.815 339.447C506.833 340.331 513.2 343.417 514.503 343.087C515.806 342.757 516.96 341.993 518.023 341.17C520.031 339.627 521.349 337.814 522.952 335.956C524.375 334.309 526.427 333.14 527.985 331.582C531.356 328.242 534.037 324.242 536.134 320.003C537.422 317.471 539.13 313.037 537.033 310.431Z" fill="#FCE1D7"/>
<path d="M525.423 444.876C522.922 445.49 520.915 444.397 519.806 442.704C519.776 442.734 519.731 442.764 519.701 442.779C514.458 446.913 506.983 439.528 512.286 435.364C521.064 428.458 531.52 425.028 540.763 418.931C553.211 410.722 556.792 397.659 553.736 383.518C551.129 371.459 545.077 360.509 541.946 348.615C539.115 337.829 541.961 322.639 532.719 314.82C530.517 312.962 530.622 310.565 531.835 308.753C529.798 309.367 527.925 310.401 526.622 311.869C521.139 318.01 509.68 336.631 507.178 334.339C505.081 332.406 508.346 322.774 508.002 323.463C506.009 327.493 505.41 329.65 504.407 333.245C502.789 338.997 502.294 341.874 503.268 345.574C504.916 351.79 511.312 355.46 511.267 354.966C513.859 356.075 513.634 355.146 514.893 357.273C516.81 360.524 518.548 363.879 520.091 367.325C521.304 370.051 523.866 379.368 522.203 379.773C520.465 380.207 517.244 380.297 508.781 382.439C501.83 384.207 493.681 385.975 487.135 388.641C479.69 391.667 477.278 391.397 471.346 396.79C471.346 396.79 477.937 392.626 493.022 411.246C499.119 418.766 504.511 443.558 506.938 452.89C519.686 449.909 514.698 451.557 527.086 447.333C532.105 445.625 537.003 443.543 541.707 441.086C545.961 438.869 564.551 437.371 568.326 421.208C568.371 421.028 568.401 420.818 568.446 420.623C559.203 433.626 541.347 440.966 525.423 444.876Z" fill="#731C42"/>
<path d="M532.704 314.82C541.946 322.639 539.1 337.829 541.931 348.615C545.062 360.509 551.114 371.474 553.721 383.518C556.777 397.659 553.196 410.722 540.748 418.931C531.505 425.013 521.049 428.443 512.271 435.364C506.968 439.528 514.443 446.913 519.686 442.779C519.716 442.749 519.761 442.719 519.791 442.704C520.9 444.397 522.907 445.49 525.409 444.876C541.347 440.966 559.188 433.611 568.446 420.638C570.468 411.216 570.109 393.315 567.068 384.522C566.049 381.556 564.776 378.739 563.383 376.013C560.327 370.066 556.627 364.478 553.331 358.561C547.699 348.405 544.613 337.874 545.002 326.264C545.167 321.066 545.422 310.865 539.64 308.768C537.303 307.929 534.426 307.989 531.82 308.768C530.607 310.565 530.517 312.962 532.704 314.82Z" fill="#731C42"/>
<path opacity="0.69" d="M532.704 314.82C541.946 322.639 539.1 337.829 541.931 348.615C545.062 360.509 551.114 371.474 553.721 383.518C556.777 397.659 553.196 410.722 540.748 418.931C531.505 425.013 521.049 428.443 512.271 435.364C506.968 439.528 514.443 446.913 519.686 442.779C519.716 442.749 519.761 442.719 519.791 442.704C520.9 444.397 522.907 445.49 525.409 444.876C541.347 440.966 559.188 433.611 568.446 420.638C570.468 411.216 570.109 393.315 567.068 384.522C566.049 381.556 564.776 378.739 563.383 376.013C560.327 370.066 556.627 364.478 553.331 358.561C547.699 348.405 544.613 337.874 545.002 326.264C545.167 321.066 545.422 310.865 539.64 308.768C537.303 307.929 534.426 307.989 531.82 308.768C530.607 310.565 530.517 312.962 532.704 314.82Z" fill="#5E1434"/>
<path d="M556.687 373.152C555.264 374.14 554.47 376.103 555.488 377.706C556.402 379.129 558.514 379.953 560.042 378.904C561.226 378.08 562.409 377.271 563.592 376.447C563.518 376.313 563.458 376.178 563.383 376.043C562.439 374.2 561.42 372.403 560.387 370.605L556.687 373.152Z" fill="#E0A31B"/>
<path d="M561.121 402.243C560.641 403.966 561.705 405.868 563.443 406.332C565.48 406.872 567.592 407.171 569.704 407.231C569.734 405.029 569.689 402.797 569.585 400.58C568.102 400.52 566.663 400.311 565.21 399.921C563.473 399.457 561.6 400.49 561.121 402.243Z" fill="#E0A31B"/>
<path d="M549.916 391.502C547.609 394.004 545.317 396.491 543.01 398.992C540.119 402.138 544.808 406.842 547.714 403.696L554.619 396.206C557.511 393.06 552.822 388.342 549.916 391.502Z" fill="#E0A31B"/>
<path d="M548.493 424.548C549.212 427.754 549.976 430.93 550.815 434.105C551.893 438.24 558.305 436.487 557.226 432.338C556.402 429.162 555.623 425.971 554.904 422.781C553.975 418.601 547.564 420.369 548.493 424.548Z" fill="#E0A31B"/>
<path d="M528.39 379.698C529.378 379.698 530.532 380.192 531.64 380.477C533.168 380.866 534.696 380.956 536.224 380.552C540.359 379.473 538.606 373.062 534.456 374.14C533.827 374.305 533.123 373.991 532.179 373.706C530.936 373.331 529.693 373.062 528.39 373.062C524.12 373.062 524.105 379.713 528.39 379.698Z" fill="#E0A31B"/>
<path d="M543.609 367.819C544.718 371.938 551.144 370.186 550.021 366.051C549.362 363.639 548.867 361.198 548.523 358.726C548.268 356.943 546.006 355.97 544.433 356.404C542.516 356.928 541.857 358.711 542.111 360.494C542.456 362.965 542.965 365.407 543.609 367.819Z" fill="#E0A31B"/>
<path d="M508.586 419.77C509.335 421.402 511.687 421.807 513.14 420.968C514.818 419.994 515.087 418.062 514.338 416.414C512.81 413.104 510.623 410.108 507.957 407.606C504.841 404.67 500.137 409.373 503.253 412.31C505.53 414.452 507.268 416.908 508.586 419.77Z" fill="#E0A31B"/>
<path d="M529.079 404.475C530.652 404.909 532.899 403.936 533.168 402.153C533.693 398.618 533.633 395.232 532.779 391.742C531.775 387.593 525.364 389.345 526.367 393.51C526.907 395.757 527.086 398.093 526.757 400.385C526.487 402.153 527.206 403.966 529.079 404.475Z" fill="#E0A31B"/>
<path d="M501.321 393.629C500.811 391.757 499.014 391.008 497.231 391.308C494.235 391.802 491.434 392.731 488.648 393.929C487 394.633 486.625 397.06 487.449 398.483C488.453 400.191 490.34 400.385 492.003 399.681C494.235 398.723 496.617 398.123 498.999 397.719C500.766 397.419 501.755 395.232 501.321 393.629Z" fill="#E0A31B"/>
<path d="M509.605 387.802C510.384 389.42 512.691 389.854 514.159 389.001C515.806 388.027 516.136 386.08 515.357 384.447C514.818 383.338 514.129 382.32 513.35 381.376C512.031 381.66 510.548 382.005 508.826 382.454C507.627 382.754 506.384 383.069 505.126 383.368C507.103 384.237 508.616 385.735 509.605 387.802Z" fill="#E0A31B"/>
<path d="M528.509 356.09C529.124 357.707 530.786 358.996 532.599 358.411C534.187 357.902 535.58 356.06 534.921 354.322C534.412 352.989 533.917 351.655 533.408 350.322C532.794 348.704 531.131 347.416 529.318 348C527.73 348.51 526.337 350.352 526.996 352.09C527.506 353.423 528 354.756 528.509 356.09Z" fill="#E0A31B"/>
<path d="M537.527 421.792C539.879 418.197 534.127 414.871 531.79 418.436C530.412 420.534 528.09 422.151 525.558 422.466C523.776 422.691 522.233 423.829 522.233 425.792C522.233 427.409 523.761 429.342 525.558 429.117C530.562 428.488 534.741 426.046 537.527 421.792Z" fill="#E0A31B"/>
<path d="M521.589 437.266C518.697 437.311 516.166 436.532 513.754 434.944C510.174 432.592 506.833 438.345 510.399 440.682C513.724 442.869 517.604 443.962 521.589 443.917C525.858 443.857 525.873 437.221 521.589 437.266Z" fill="#E0A31B"/>
<path d="M448.232 495.029C447.468 494.385 446.419 494.175 445.056 494.759C443.034 495.643 441.521 497.336 439.858 498.714C438.689 499.673 437.611 500.841 437.236 502.309C436.832 503.927 437.416 505.74 438.689 506.818C439.603 507.582 440.816 507.972 441.64 508.826C442.539 509.754 442.599 510.998 442.374 512.196C442.329 512.406 441.865 514.129 441.595 515.327C441.461 515.881 441.97 516.376 442.524 516.256C442.989 516.151 443.483 516.031 443.947 515.986C444.517 515.926 444.996 515.507 445.116 514.952C445.865 511.537 446 508.092 447.438 504.781C448.142 503.148 449.07 501.59 449.46 499.853C449.834 498.085 449.415 496.033 448.232 495.029Z" fill="#691B3D"/>
<path d="M477.967 397.614C477.952 397.629 477.922 397.629 477.907 397.629C466.687 392.94 457.789 411.695 454.913 420.354C450.538 433.521 446.464 446.913 443.348 461.758C441.925 468.544 437.656 489.097 434.555 494.415C431.724 499.268 429.177 508.181 427.859 514.054C427.619 515.117 440.816 511.537 443.453 508.122C445.64 505.305 446.284 500.452 448.007 497.456C449.46 494.909 459.077 477.353 463.526 470.642C469.413 461.773 471.376 455.946 477.667 442.449C480.139 437.146 485.936 421.208 487.03 415.485C487.09 415.141 487.165 414.826 487.239 414.512C488.857 413.568 490.939 412.235 492.467 410.781C488.558 405.553 483.719 400.79 477.967 397.614Z" fill="#FCE1D7"/>
<path d="M497.411 385.99C493.516 387.353 489.636 388.746 485.966 390.633C484.363 391.457 482.176 392.461 481.143 394.019C480.139 395.547 479.3 397.21 478.252 398.738C476.843 400.775 477.128 397.629 475.196 395.637C473.083 393.45 468.904 395.157 469.698 392.057C470.432 389.195 473.233 386.948 475.57 385.39C484.363 379.503 490.88 370.62 500.062 365.347C502.804 363.774 505.47 363.31 507.388 360.748C509.41 358.067 512.436 356.314 513.949 353.348C514.188 352.884 514.668 352.36 515.117 352.629C515.312 352.734 515.402 352.959 515.477 353.153C516.51 355.94 515.731 357.633 516.525 360.509C518.068 366.126 518.263 372.882 513.754 377.181C511.911 378.934 509.305 380.717 507.013 381.795C503.328 383.548 501.261 384.641 497.411 385.99Z" fill="#E3BBAF"/>
<path d="M599.634 329.17C598.855 328.541 597.957 328.122 597.013 327.852C593.717 328.511 590.392 330.159 588.939 331.672C583.681 337.125 582.422 346.278 580.34 353.273C575.112 370.905 572.191 387.053 567.293 406.767C566.394 410.347 563.892 428.188 554.814 431.589C542.321 435.259 529.169 434.854 516.406 437.311C511.612 438.24 489.891 443.318 498.235 451.842C499.973 453.624 503.598 452.276 504.601 452.77C505.845 453.385 507.298 453.4 508.691 453.4C521.184 453.43 533.677 453.445 546.156 453.475C550.245 453.49 554.59 453.475 558.694 452.636C558.919 452.186 561.256 452.77 561.9 452.636C568.476 451.302 569.255 444.861 572.416 435.663C575.981 422.466 582.138 409.164 586.617 396.281C592.624 379.039 597.957 361.557 601.911 343.731C603.065 338.683 603.694 332.421 599.634 329.17Z" fill="#E2E9FB"/>
<path d="M560.012 552.283H557.361L557.376 452.606L560.042 452.696L560.012 552.283Z" fill="#0D0C19"/>
<path d="M486.101 552.193H483.075L517.589 452.201L520.091 453.1L486.101 552.193Z" fill="#0D0C19"/>
<path d="M566.559 451.326L498.167 452.194L498.201 454.86L566.593 453.992L566.559 451.326Z" fill="#0D0C19"/>
<path d="M503.208 454.913L500.632 454.269C501.246 451.797 502.624 446.059 504.002 440.307C505.38 434.555 506.758 428.788 507.373 426.331C510.608 413.253 514.368 400.925 524.555 394.004C529.273 390.798 534.981 389.21 540.014 387.817C545.706 386.244 556.432 383.128 566.828 380.132C577.224 377.121 587.965 374.006 593.672 372.433L594.376 374.994C588.684 376.567 577.958 379.683 567.562 382.679C557.166 385.69 546.425 388.806 540.718 390.379C535.655 391.787 530.397 393.24 526.038 396.191C516.615 402.588 513.05 414.392 509.934 426.96C509.32 429.432 507.942 435.169 506.564 440.921C505.2 446.689 503.822 452.441 503.208 454.913Z" fill="#0D0C19"/>
<path d="M593.553 321.77C597.642 315.194 595.844 305.457 589.538 300.948C586.452 298.746 580.056 297.233 573.839 297.997C573.045 298.102 570.843 298.417 570.064 298.776C571.502 292.754 570.738 286.582 566.379 281.834C564.716 279.497 562.035 277.954 559.069 276.95C558.17 276.621 557.256 276.366 556.327 276.186C556.192 276.156 556.058 276.126 555.923 276.096C555.848 276.081 555.773 276.066 555.713 276.051C554.5 275.797 553.301 275.602 552.163 275.452C545.407 274.598 539.16 273.759 536.449 266.599C536.434 266.569 536.434 266.554 536.419 266.539C536.089 265.341 535.64 264.187 535.086 263.109C534.696 262.24 534.232 261.476 533.603 260.772C532.419 259.259 530.906 257.941 528.959 256.922C523.132 253.896 518.128 255.379 513.02 257.207C510.518 257.851 508.047 258.6 505.335 258.555C503.478 258.525 501.545 258.675 499.868 259.199C498.804 259.528 497.875 260.277 497.336 261.251C497.336 261.251 497.336 261.266 497.321 261.266C494.535 266.329 498.954 270.943 503.553 272.561C507.987 273.205 512.106 269.565 516.645 270.749C519.462 271.468 520.061 273.939 520.375 276.426C520.3 276.845 520.3 277.265 520.435 277.684C520.555 278.059 520.96 278.328 521.364 278.209C521.454 278.179 521.544 278.149 521.619 278.134C521.948 278.029 522.113 277.774 522.128 277.504C522.787 277.01 523.626 276.755 524.435 276.965C525.648 277.265 526.397 278.463 526.307 279.662C526.292 279.946 526.217 280.231 526.128 280.5C526.113 280.56 526.128 280.62 526.113 280.68C525.978 281.22 525.633 281.714 525.139 281.969C525.049 282.013 525.004 281.998 524.959 281.969C524.824 282.058 524.69 282.163 524.54 282.223C524.18 282.373 523.836 282.403 523.506 282.373C523.281 282.523 523.072 282.673 522.892 282.867C521.349 284.545 519.072 298.686 529.258 306.341C529.708 306.745 530.622 307.24 531.146 307.584C535.22 310.221 541.347 309.697 543.594 314.925C545.422 319.179 544.283 325.74 545.002 330.069C546.201 341.904 549.601 351.131 559.623 358.801C563.278 361.602 567.652 362.876 571.742 361.692C573.33 361.872 575.127 361.273 576.146 360.014C581.509 353.453 582.932 341.829 583.801 339.866C587.62 331.268 592.624 328.586 589.838 325.096C589.448 324.557 592.01 322.909 593.553 321.77Z" fill="#E0A31B"/>
<path d="M584.085 340.061C586.092 332.241 593.163 329.44 590.212 325.515C590.047 325.291 590.092 324.991 590.347 324.856C591.111 324.467 592.624 323.538 593.553 321.77C596.519 316.992 596.369 310.55 593.657 305.652C593.927 310.341 592.789 315.044 589.957 318.939C589.163 319.344 588.789 320.227 588.834 321.096C588.774 321.261 588.729 321.426 588.669 321.576C587.965 324.991 586.092 328.287 583.726 330.579C579.546 334.653 573.569 334.653 568.446 332.466C559.173 328.526 554.889 319.059 554.814 309.562C554.575 308.962 554.35 308.378 554.11 307.794C552.627 307.599 548.657 308.019 547.774 307.794C536.239 304.753 528.27 295.51 527.446 283.511C527.416 283.062 527.326 282.643 527.221 282.253C528.449 276.726 527.91 269.91 522.577 267.243C515.267 263.573 507.223 272.306 500.437 268.651C499.448 268.112 498.474 267.947 497.576 268.007C498.894 270.089 501.201 271.722 503.583 272.546C508.017 273.19 512.136 269.55 516.675 270.734C519.491 271.453 520.091 273.924 520.405 276.411C520.33 276.83 520.33 277.25 520.465 277.669C520.585 278.044 520.989 278.313 521.394 278.194C521.484 278.164 521.574 278.134 521.649 278.119C521.978 278.014 522.143 277.759 522.158 277.49C522.817 276.995 523.656 276.741 524.465 276.95C525.678 277.25 526.427 278.448 526.337 279.647C526.322 279.931 526.247 280.216 526.157 280.486C526.142 280.545 526.157 280.605 526.143 280.665C526.008 281.205 525.663 281.699 525.169 281.954C525.079 281.998 525.034 281.984 524.989 281.954C524.854 282.043 524.719 282.148 524.57 282.208C524.21 282.358 523.866 282.388 523.536 282.358C523.311 282.508 523.102 282.658 522.922 282.852C521.379 284.53 519.102 298.671 529.288 306.326C529.738 306.73 530.651 307.225 531.176 307.569C535.25 310.206 541.377 309.682 543.624 314.91C545.452 319.164 544.313 325.725 545.032 330.054C546.216 341.754 549.571 350.907 559.323 358.516C559.937 358.951 560.552 359.385 561.196 359.775C561.765 360.119 562.319 360.434 562.888 360.733C565.75 362.082 568.836 362.516 571.772 361.662C573.359 361.842 575.157 361.243 576.176 359.984C581.524 353.438 583.546 342.158 584.085 340.061Z" fill="#C79020"/>
<path d="M498.415 264.247C497.441 262.225 499.868 260.577 501.635 260.592C502.729 260.592 502.953 259.289 502.354 258.69C501.485 258.794 500.647 258.944 499.853 259.199C498.789 259.528 497.86 260.277 497.321 261.251C497.321 261.251 497.321 261.266 497.306 261.266C496.527 262.674 496.332 264.052 496.512 265.326C496.512 265.326 496.512 265.326 496.512 265.341C497.141 266.614 499.029 265.505 498.415 264.247Z" fill="#EDB22D"/>
<path d="M450.269 334.429H438.03C436.652 338.923 435.813 342.278 435.229 346.592C434.69 350.562 435.813 360.149 443.303 360.404V377.87H438.809C437.311 377.87 437.311 379.368 438.809 379.368H449.295V377.87H444.801V360.389C450.793 360.029 453.085 355.625 453.4 353.333C454.403 345.948 451.452 337.425 450.269 334.429Z" fill="#C4D3FB"/>
<path d="M482.745 383.353C482.641 383.084 482.476 382.889 482.296 382.724C482.161 381.93 481.502 381.271 480.528 381.615C479.075 382.125 478.985 381.99 477.712 382.784C476.199 383.473 471.96 387.038 469.278 390.364C467.181 393.09 465.279 395.936 463.691 399.007C462.687 400.94 464.784 400.61 467.166 398.423C467.75 397.884 468.455 397.944 468.979 398.273C469.533 397.629 470.357 397.599 470.971 397.914C471.855 397.24 472.978 397.989 473.173 398.977C473.653 398.288 474.297 397.509 475.061 397.255C474.447 399.067 473.638 400.82 472.649 402.513C472.514 402.707 472.379 402.902 472.244 403.082C471.525 404.041 472.529 405.164 473.488 405.254C473.548 405.254 473.608 405.269 473.668 405.269C474.312 405.329 474.716 405.014 474.911 404.565C474.926 404.535 474.956 404.535 474.971 404.505C475.405 403.801 475.81 403.082 476.184 402.348C476.274 402.183 476.394 402.033 476.499 401.868C476.544 401.809 476.589 401.779 476.634 401.704C478.132 398.842 480.094 395.861 481.173 392.701C481.232 392.626 481.322 392.581 481.367 392.476C483.075 389.54 483.989 386.679 482.745 383.353Z" fill="#E3BBAF"/>
<path d="M435.933 347.087C435.289 352.105 437.716 360.179 443.827 359.55C451.842 358.726 453.235 353.708 452.636 346.997C452.636 346.997 435.933 347.087 435.933 347.087Z" fill="#942254"/>
<path d="M540.853 316.003C532.988 302.596 523.191 319.119 521.379 323.598C520.315 326.219 519.566 328.946 518.952 331.702C518.383 334.234 517.154 338.263 516.181 340.675C514.728 344.27 513.14 347.821 511.342 351.251C510.533 352.809 509.679 354.352 508.796 355.88C508.107 357.063 507.642 358.891 506.564 359.79C504.931 361.153 501.425 360.643 499.373 360.868C493.471 361.542 487.644 362.831 481.996 364.703C475.87 366.74 463.182 369.721 457.22 369.841C454.328 368.793 452.321 368.193 450.898 367.894C448.726 367.235 446.599 367.714 443.827 369.497C443.093 369.077 441.925 369.242 441.206 369.557C440.652 369.811 440.232 370.231 439.948 370.725C439.918 370.71 439.888 370.68 439.873 370.695C438.48 371.669 439.408 373.361 439.858 373.511C439.873 373.586 439.918 373.646 439.933 373.721L439.918 373.736C439.139 374.815 439.618 376.298 440.622 377.047C440.861 377.226 441.146 377.361 441.431 377.496C441.491 378.185 441.865 378.844 442.569 379.264C443.812 379.998 445.236 379.234 446.434 379.863C446.898 380.102 447.333 380.043 447.692 379.848C449.205 380.088 451.198 380.177 452.935 379.878C453.804 380.207 454.778 380.342 455.737 380.237C457.699 380.013 459.661 379.758 461.609 379.518C472.14 379.563 482.671 379.428 493.201 379.084C496.557 378.979 500.047 379.234 503.358 378.694C505.979 378.26 509.23 378.515 511.717 377.556C513.08 377.032 514.188 376.013 515.162 374.934C522.892 366.351 530.577 356.509 536.044 346.308C538.711 341.334 540.523 335.971 541.812 330.474C542.965 325.56 543.34 320.227 540.853 316.003Z" fill="#FCE1D7"/>
<path d="M470.836 530.322C470.761 529.962 470.207 529.693 469.953 529.738C469.668 529.768 469.144 529.888 468.634 530.142C468.514 530.142 468.395 530.172 468.275 530.247C465.174 532.254 463.167 535.595 460.47 538.082C458.313 540.074 455.931 541.782 453.43 543.265C451.857 543.864 450.149 544.403 448.306 544.912C447.857 544.898 447.123 545.017 446.374 545.137C445.086 545.167 443.797 545.227 442.524 545.347C441.371 545.467 439.648 545.392 438.659 546.051C437.94 546.53 437.731 547.219 437.835 547.879C437.776 548.912 439.034 550.425 440.262 550.8C442.554 551.504 445.4 551.399 447.782 551.459C449.79 551.519 451.677 551.474 453.534 550.934C453.849 550.934 454.044 550.919 454.059 550.919C455.557 550.845 459.601 547.594 459.646 547.519C460.92 546.485 462.103 545.392 463.436 544.493C464.02 544.104 464.799 544.388 464.919 545.047C465.144 546.396 465.249 547.789 465.234 549.212C465.234 549.436 465.324 549.601 465.444 549.706C465.489 549.991 465.668 550.245 466.013 550.215C467.151 550.14 468.29 550.081 469.413 550.006C469.653 549.991 469.818 549.841 469.908 549.661C470.042 549.586 470.147 549.451 470.177 549.212C471.061 543.07 471.765 534.861 470.836 530.322Z" fill="#691B3D"/>
<path d="M447.572 501.216C447.423 500.781 447.333 499.778 446.973 500.227C446.104 501.306 444.352 504.182 443.782 504.811C441.955 507.028 440.008 509.335 437.551 510.833C435.978 511.792 433.791 512.735 431.903 512.121C427.664 510.743 431.244 503.133 430.72 503.418C430.84 503.178 430.78 502.894 430.9 502.654C431.259 501.89 426.585 510.204 425.387 514.578C425.252 515.057 421.912 519.911 424.518 521.379C426.106 522.263 429.402 522.862 431.049 521.933C434.06 521.064 437.476 518.128 439.229 515.851C442.554 511.552 445.355 506.908 447.692 501.995C447.857 501.695 447.767 501.411 447.572 501.216Z" fill="#691B3D"/>
<path d="M524 280.65C523.176 279.916 521.918 279.961 521.184 280.605C520.106 281.264 519.596 282.688 520.24 283.856C520.989 285.204 522.952 285.444 524.06 284.425C525.169 283.437 525.079 281.624 524 280.65Z" fill="#16164A"/>
<path d="M512.286 316.183C511.792 315.823 511.088 316.018 510.668 316.393C510.444 316.602 510.219 316.797 509.994 317.007C509.814 317.171 509.71 317.351 509.65 317.546C509.08 318.4 509.035 319.568 509.62 320.437C510.009 321.006 510.803 321.336 511.432 320.917C512.211 320.392 512.99 319.778 513.245 318.834C513.544 317.771 513.14 316.812 512.286 316.183Z" fill="#16164A"/>
<path d="M519.312 311.689C519.267 311.674 519.222 311.689 519.177 311.674C519.027 311.614 518.877 311.584 518.712 311.614C517.529 311.764 516.48 312.618 516.525 313.921C516.54 314.191 516.6 314.445 516.69 314.685C516.316 314.4 515.836 314.22 515.327 314.22C514.518 314.22 513.589 314.7 513.469 315.569C513.454 315.674 513.484 315.763 513.484 315.868C513.29 316.467 513.38 317.157 513.829 317.741C514.848 319.029 516.93 318.505 517.439 317.007C517.604 316.497 517.559 316.003 517.379 315.554C517.724 315.823 518.158 315.988 518.623 316.018C519.671 316.063 520.615 315.404 520.87 314.37C521.139 313.172 520.39 312.093 519.312 311.689Z" fill="#16164A"/>
<path d="M523.431 309.502C523.147 308.992 522.487 308.618 521.903 308.843C520.84 309.262 520.046 310.236 520.285 311.449C520.495 312.468 521.394 313.157 522.428 313.127C523.551 313.097 524.435 312.183 524.36 311.06C524.345 310.341 523.97 309.816 523.431 309.502Z" fill="#16164A"/>
<path d="M526.607 306.146C525.588 305.442 523.821 305.817 523.611 307.21C523.596 307.285 523.611 307.36 523.611 307.435C523.431 308.139 523.596 308.918 524.12 309.472C524.989 310.386 526.517 310.206 527.281 309.277C528.06 308.303 527.566 306.805 526.607 306.146Z" fill="#16164A"/>
<path d="M509.5 282.837C509.14 283.661 508.436 284.245 507.492 284.201C506.639 284.171 505.695 283.631 505.56 282.732C505.455 281.954 504.272 282.283 504.377 283.062C504.556 284.395 505.949 285.264 507.193 285.399C508.631 285.564 509.979 284.785 510.548 283.452C510.863 282.732 509.799 282.103 509.5 282.837Z" fill="#942254"/>
<path d="M513.904 289.593C512.346 290.702 510.204 291.391 508.481 291.181C508.496 291.181 508.496 291.196 508.511 291.196C508.93 292.709 509.275 294.237 509.59 295.765C509.754 295.69 509.919 295.63 510.084 295.555C510.893 295.301 514.982 293.503 514.982 290.747C514.982 290.013 514.368 289.294 513.904 289.593Z" fill="#E3BBAF"/>
<path d="M478.236 394.513C478.326 394.199 478.222 393.944 478.042 393.779C478.132 393.614 478.222 393.45 478.296 393.27C478.626 392.476 477.532 392.087 477.023 392.626C476.963 392.551 476.933 392.476 476.858 392.416C476.798 392.371 476.739 392.326 476.664 392.296C476.559 392.057 476.379 391.832 476.109 391.637C474.342 390.379 470.806 393.629 469.608 394.798C469.398 394.663 469.159 394.633 468.919 394.768C468.619 394.438 468.005 394.348 467.646 394.813C467.346 395.217 467.061 395.622 466.792 396.026C466.687 395.876 466.507 395.772 466.312 395.727C468.919 392.356 471.99 389.33 475.51 386.769C476.274 386.199 475.54 384.911 474.761 385.48C468.784 389.854 464.05 395.397 460.68 401.838C460.575 401.898 460.47 401.988 460.41 402.138C460.111 402.812 459.826 403.486 459.527 404.16C459.482 404.25 459.452 404.325 459.407 404.415C458.897 405.569 458.388 406.737 457.879 407.89C457.474 408.804 457.1 409.403 457.594 410.332C457.834 410.797 458.658 410.841 458.882 410.332C459.017 410.048 459.167 409.763 459.302 409.478C459.032 410.182 458.792 410.886 458.568 411.605C458.418 412.07 458.748 412.414 459.137 412.504C459.032 412.954 459.092 413.358 459.527 413.748C459.721 413.912 459.991 414.032 460.261 413.942C462.163 413.298 463.137 409.838 463.991 408.205C464.035 408.115 464.095 408.025 464.14 407.935C464.125 407.965 464.14 407.995 464.125 408.025C464.11 408.085 464.08 408.13 464.065 408.19C463.751 409.059 463.406 409.883 463.481 410.826C463.511 411.141 463.691 411.471 464.035 411.546C464.799 411.725 465.309 411.351 465.698 410.707C466.312 409.703 466.777 408.579 467.286 407.501C468.844 404.79 470.582 402.198 472.484 399.741C472.829 399.397 473.173 399.082 473.578 398.798C473.802 398.648 474.042 398.468 474.297 398.348C474.821 398.108 475.255 398.513 475.181 399.082C475.121 399.547 475.435 399.771 475.81 399.786C475.915 400.55 477.188 400.49 477.293 399.606C477.383 398.857 477.413 398.138 477.428 397.404C477.952 396.386 477.982 396.311 478.386 395.157C478.416 394.873 478.356 394.663 478.236 394.513Z" fill="#E3BBAF"/>
<path d="M239.605 314.58H236.609V299.39C236.13 299.345 235.605 299.405 235.111 299.45V314.58H232.115C230.617 314.58 230.617 316.078 232.115 316.078H239.605C241.103 316.078 241.103 314.58 239.605 314.58Z" fill="#C4D3FB"/>
<path d="M250.211 289.803C244.998 292.005 238.691 291.825 233.119 292.35C231.411 292.514 231.711 295.151 233.403 294.986C239.231 294.432 245.732 294.582 251.185 292.275C252.773 291.601 251.799 289.129 250.211 289.803Z" fill="#FCE1D7"/>
<path d="M215.038 308.273C213.735 310.296 215.038 308.273 217.3 310.565C218.438 311.719 219.876 312.543 221.33 313.262C222.079 313.636 222.828 313.981 223.591 314.34C224.206 314.625 224.865 314.775 225.239 315.359C225.494 315.763 225.853 316.093 226.258 316.318C227.426 316.962 227.681 313.561 227.756 313.037C227.981 311.284 228.325 309.562 228.775 307.869C229.389 305.622 230.018 303.315 231.336 301.293C232.355 299.735 233.793 300.739 235.291 300.739C236.295 300.739 238.586 300.843 239.081 299.6C239.395 298.806 239.44 297.952 239.081 297.158C238.212 295.256 237.778 292.874 236.07 293.039C234.092 293.234 232.909 293.458 230.977 293.024C229.643 292.724 224.895 293.773 223.277 294.971C221.285 296.454 219.577 299.315 219.247 299.825C218.184 301.488 218.274 301.532 217.375 303.3C216.566 304.903 216.012 306.76 215.038 308.273Z" fill="#FCE1D7"/>
<path d="M231.486 288.335C227.441 290.118 224.086 293.009 221.644 296.694C220.521 298.402 223.187 300.109 224.326 298.402C226.468 295.151 229.419 292.709 232.969 291.136C234.841 290.327 233.343 287.511 231.486 288.335Z" fill="#FCE1D7"/>
<path d="M267.153 529.378C262.135 527.97 256.607 529.213 251.589 527.805L247.05 528.974C247.545 535.625 248.039 545.257 249.043 550.245C253.881 551.294 261.85 547.983 266.464 549.781C268.097 543.789 269.191 538.471 270.299 532.359C270.419 531.655 267.498 529.468 267.153 529.378Z" fill="white"/>
<path d="M241.028 516.435C236.369 514.099 230.707 514.263 226.048 511.926L222.423 513.065C220.82 519.012 219.232 525.903 217.764 531.925C222.318 533.872 230.692 534.861 234.886 537.497C237.628 531.925 240.579 525.633 242.841 519.836C243.095 519.177 241.328 516.585 241.028 516.435Z" fill="#E2E9FB"/>
<path d="M241.852 272.636H230.422C229.134 277.13 228.61 280.441 228.071 284.47C227.591 288.065 227.636 297.023 235.126 297.772V297.967C235.62 297.937 236.13 297.892 236.624 297.922V297.817C242.616 297.413 244.369 292.889 244.668 290.777C245.582 283.871 242.961 275.632 241.852 272.636Z" fill="#C4D3FB"/>
<path d="M270.374 439.049C268.352 430.675 262.914 422.781 254.945 419.515C247.604 416.504 235.56 418.002 233.254 426.675C230.632 436.487 230.587 448.441 228.76 458.658C224.67 481.532 222.723 494.595 218.259 517.394C223.741 520.001 235.381 524.689 242.331 526.217C254.675 503.807 263.813 488.588 269.52 464.65C271.512 456.276 272.396 447.423 270.374 439.049Z" fill="#5E1434"/>
<path d="M270.958 534.606C277.699 500.422 281.279 473.248 280.92 438.405C280.695 416.114 272.636 398.588 248.503 397.24C205.915 394.873 163.162 395.217 120.619 398.288C119.765 413.238 119.69 430.27 130.566 440.562C136.393 446.074 144.482 448.591 152.436 449.67C164.66 451.317 177.079 449.984 189.347 448.651C203.893 447.063 218.438 445.49 232.969 443.902C239.066 475.825 242.601 502.354 246.661 534.606C254.405 535.101 263.393 534.711 270.958 534.606Z" fill="#731C42"/>
<path d="M195.294 274.419C195.294 274.284 195.324 274.149 195.369 274.014C195.144 273.954 194.935 273.909 194.71 273.864C194.845 274.029 194.95 274.209 195.01 274.419C195.115 274.419 195.204 274.404 195.294 274.419Z" fill="#FCE1D7"/>
<path d="M195.129 288.02C193.467 289.009 191.37 288.934 189.302 288.59C188.179 289.578 186.726 289.878 184.943 288.964C182.247 287.586 182.726 283.751 183.116 281.294C183.61 278.119 185.063 274.973 187.999 273.4C188.523 273.115 189.093 272.906 189.692 272.756C173.259 269.7 174.667 276.8 159.941 309.891C159.941 310.161 159.971 310.416 160.076 310.565C160.556 311.299 162.144 311.644 162.878 311.884C164.735 312.483 166.098 312.078 168.076 312.273C172.48 312.678 175.566 317.756 180.449 316.003C180.884 315.853 181.303 315.629 181.633 315.314C181.782 315.299 182.082 314.625 182.501 313.546C181.033 313.172 178.816 311.929 178.966 311C178.876 310.67 178.906 310.311 179.146 309.936C182.022 305.337 183.235 300.319 182.846 294.911C182.846 294.866 182.846 294.821 182.846 294.776C182.771 294.177 182.681 293.563 182.606 292.964C182.441 291.736 182.441 290.852 183.49 290.043C183.969 289.668 184.928 289.818 185.303 290.282C185.422 290.432 185.557 290.597 185.677 290.747C185.857 290.957 185.947 291.196 185.992 291.421C186.022 291.451 186.037 291.451 186.067 291.481C186.666 292.215 187.325 292.919 187.954 293.623C188.748 293.848 189.557 294.252 190.351 294.642C191.504 294.012 193.077 292.949 194.291 290.957C194.71 290.163 195.115 289.324 195.474 288.485C195.354 288.365 195.219 288.2 195.129 288.02Z" fill="#FCE1D7"/>
<path d="M186.082 291.496C186.052 291.466 186.037 291.466 186.007 291.436C185.962 291.211 185.872 290.972 185.692 290.762C185.572 290.612 185.437 290.447 185.318 290.297C184.943 289.848 183.984 289.683 183.505 290.058C182.456 290.867 182.456 291.75 182.621 292.979C182.696 293.578 182.786 294.192 182.861 294.791C182.861 294.836 182.846 294.881 182.861 294.926C183.25 300.334 182.037 305.352 179.161 309.951C178.921 310.326 178.891 310.685 178.981 311.015C178.831 311.943 181.048 313.202 182.516 313.561C184.029 309.682 187.055 300.274 190.081 294.806C190.171 294.761 190.291 294.702 190.396 294.642C189.617 294.252 188.808 293.848 187.999 293.623C187.325 292.934 186.681 292.23 186.082 291.496Z" fill="#E3BBAF"/>
<path d="M183.101 281.294C182.711 283.751 182.232 287.586 184.928 288.964C186.726 289.878 188.164 289.578 189.287 288.59C191.355 288.919 193.437 288.994 195.115 288.02C195.204 288.2 195.339 288.365 195.489 288.5C196.538 286.073 197.257 283.482 197.376 280.89C197.466 279.077 196.912 276.156 195.624 274.074C195.534 274.044 195.444 274.029 195.354 274.014C195.324 274.149 195.279 274.269 195.279 274.419C195.189 274.419 195.085 274.419 194.995 274.419C194.935 274.209 194.83 274.029 194.695 273.864C192.853 273.43 191.175 273.055 189.677 272.771C189.078 272.921 188.508 273.13 187.984 273.415C185.063 274.973 183.595 278.119 183.101 281.294Z" fill="#E3BBAF"/>
<path d="M184.239 351.401C185.602 339.656 189.182 325.246 183.4 314.205C182.921 313.277 182.891 312.378 183.131 311.599C183.101 311.509 183.071 311.434 183.056 311.344C179.52 308.663 175.371 306.641 171.057 305.592C168.9 305.068 166.668 304.768 164.45 304.888C163.761 304.918 162.518 304.828 161.904 305.202C161.065 305.712 160.81 307.15 160.316 307.929C159.237 309.607 155.313 307.779 149.995 319.299C146.459 326.953 126.027 383.039 120.065 398.768C119.945 399.382 119.81 400.011 119.705 400.625C139.823 398.453 160.046 396.94 180.299 396.041C180.299 381.091 182.501 366.216 184.239 351.401Z" fill="#E0A31B"/>
<path d="M188.089 368.478C192.733 370.695 198.215 372.762 201.271 370.56C203.938 368.628 205.735 365.737 207.413 362.905C212.252 354.726 217.315 347.251 221.374 338.668C225.089 330.803 227.097 322.519 229.074 313.636C227.591 313.022 215.173 306.715 215.487 306.191C209.346 316.587 203.503 327.613 196.073 337.454C192.778 341.814 192.328 343.446 188.089 339.761C185.333 337.35 180.179 323.059 177.004 321.066C171.027 320.737 153.126 330.219 162.818 346.293C167.686 347.731 185.003 367.01 188.089 368.478Z" fill="#C79020"/>
<path d="M198.245 288.844C196.957 284.35 190.8 284.935 186.651 285.339C185.917 284.994 185.078 284.89 184.643 284.141C183.116 281.534 183.355 278.673 185.378 276.785C186.156 274.748 188.149 273.789 190.411 273.849C191.04 273.864 191.684 273.954 192.298 274.074C193.587 274.613 195.1 274.853 196.163 274.538C196.238 274.523 196.298 274.479 196.358 274.449C196.433 274.434 196.508 274.434 196.583 274.404C196.583 274.389 196.568 274.374 196.568 274.359C198.081 273.625 198.5 271.707 197.631 270.224C196.867 268.906 195.249 268.157 193.617 267.738C193.407 267.468 183.715 266.584 179.895 267.977C176.569 269.176 174.877 272.426 173.483 275.437C173.364 275.707 172.075 279.377 172.255 281.07C172.33 281.789 173.513 283.122 179.041 283.556C179.371 284.126 179.655 284.77 179.895 285.369C179.91 285.444 180.075 285.923 180.105 285.998C180.09 286.687 180.105 287.376 180.209 288.065C180.928 292.814 184.763 296.11 189.572 296.185C193.392 296.214 199.653 293.773 198.245 288.844Z" fill="#0D0C19"/>
<path d="M180.269 396.026C180.299 381.076 182.501 366.216 184.224 351.386C185.587 339.642 189.167 325.231 183.385 314.191C182.906 313.262 182.876 312.363 183.115 311.584C183.086 311.494 183.056 311.419 183.041 311.329C181.588 310.221 180.015 309.247 178.382 308.378C177.678 312.977 177.273 334.234 174.906 354.082C174.652 356.239 171.851 356.839 170.652 355.026C170.652 355.011 170.637 355.011 170.637 354.996C170.278 354.442 169.903 353.903 169.544 353.348C169.439 353.198 169.364 353.019 169.289 352.854C168.405 350.367 167.536 347.851 166.862 345.259C166.518 343.926 164.945 343.971 164.256 344.78C164.046 344.84 163.836 344.944 163.656 345.094C161.529 339.147 160.496 332.781 160.631 326.189C160.675 324.257 157.679 324.257 157.635 326.189C157.35 338.982 161.35 351.071 168.929 360.958C169.079 361.168 169.214 361.392 169.289 361.632C170.263 364.583 171.042 367.564 171.371 370.59C171.596 372.598 171.356 374.635 170.802 376.582C168.42 385.061 165.199 390.933 160.735 391.248C151.538 391.907 130.611 393.21 121.892 393.764C121.173 395.697 120.529 397.389 120.005 398.768C119.885 399.382 119.75 400.011 119.645 400.625C139.793 398.453 160.016 396.925 180.269 396.026Z" fill="#C79020"/>
<path d="M295.031 368.014C288.799 364.284 280.471 366.621 278.613 367.16C270.853 364.374 265.101 363.729 265.101 363.729C265.101 363.729 261.146 371.519 261.326 372.433C261.79 374.68 262.869 379.773 262.944 379.773C262.944 379.773 275.647 379.803 281.354 379.668C281.819 380.207 282.613 380.372 283.197 379.683C283.332 379.533 283.452 379.368 283.586 379.219C283.631 379.174 283.676 379.114 283.721 379.069C284.905 377.885 286.358 377.017 288.05 376.807C290.492 376.507 291.151 377.541 292.26 379.383C292.544 379.863 293.204 380.192 293.758 379.998C293.803 379.983 293.833 379.968 293.878 379.953C294.402 379.758 294.881 379.279 294.851 378.664C294.851 378.634 294.851 378.59 294.851 378.56C294.821 378.065 294.567 377.736 294.237 377.526C293.368 376.133 292.455 375.039 291.061 374.485C293.953 374.695 294.507 377.286 296.289 379.398C296.679 379.863 297.308 379.833 297.817 379.638C298.402 379.713 298.971 379.458 299.091 378.709C299.211 377.945 299.241 377.196 299.181 376.462C299.375 377.136 299.54 377.855 299.66 378.619C299.93 380.297 302.506 379.593 302.222 377.915C301.428 372.912 299.45 370.65 295.031 368.014Z" fill="#FCE1D7"/>
<path d="M267.153 363.175C251.484 360.389 239.35 359.175 228.145 358.352C210.379 357.048 208.552 353.378 201.945 345.768C196.792 339.836 191.729 333.215 186.171 327.208C182.142 319.344 178.966 310.7 168.465 311.03C167.746 311.06 167.132 311.464 166.727 312.018C160.72 309.502 155.672 311.06 155.897 318.969C156.451 342.353 164.465 349.244 178.652 365.392C181.633 368.793 195.279 378.859 199.489 380.507C203.443 382.05 207.833 381.75 212.072 381.436C229.374 380.117 244.638 380.807 265.131 379.668C265.955 379.608 267.693 363.28 267.153 363.175Z" fill="#E0A31B"/>
<path d="M228.475 285.414C227.876 290.103 230.138 297.638 235.845 297.053C243.32 296.289 244.623 291.601 244.069 285.339C244.069 285.339 228.475 285.414 228.475 285.414Z" fill="#942254"/>
<path d="M194.021 374.934C193.137 375.099 192.658 375.653 192.478 376.298C195.399 378.29 198.036 379.908 199.504 380.477C203.114 381.885 207.084 381.765 210.963 381.481C208.387 375.564 199.758 373.841 194.021 374.934Z" fill="#731C42"/>
<path d="M242.316 288.874C241.687 287.406 239.545 288.68 240.174 290.133C241.552 293.338 239.261 296.409 236.324 297.533C236.19 297.593 233.239 297.937 230.917 297.518C229.344 297.233 231.486 300.244 233.089 300.229C234.092 300.229 235.036 300.469 236.04 300.469C236.354 300.469 237.643 300.199 237.688 300.169C242.257 298.417 244.384 293.653 242.316 288.874Z" fill="#FCE1D7"/>
<path d="M245.522 287.256C244.878 285.803 242.736 287.062 243.38 288.515C245.013 292.23 242.316 296.394 238.826 297.698C237.343 298.252 237.987 300.649 239.485 300.094C244.608 298.177 247.829 292.514 245.522 287.256Z" fill="#FCE1D7"/>
<path d="M193.152 289.474C192.373 289.923 191.504 289.863 190.755 289.384C190.036 288.904 189.377 290.058 190.081 290.537C191.205 291.286 192.658 291.301 193.826 290.627C194.56 290.193 193.886 289.054 193.152 289.474Z" fill="#FCE1D7"/>
<path d="M293.698 554.08C292.844 553.781 291.75 553.691 290.897 553.586C288.919 553.346 286.912 553.241 284.905 553.121C284.68 553.032 282.328 552.717 281.219 552.178C279.707 551.444 276.531 549.586 275.153 548.627C273.055 547.174 270.524 544.778 269.325 543.265C269.101 542.98 268.756 542.845 268.412 542.86C264.951 543.01 250.615 543.849 247.769 543.19C247.604 543.399 247.485 543.639 247.47 543.939C247.47 544.313 247.485 544.673 247.5 545.047C247.514 545.527 247.529 546.006 247.559 546.485C247.769 550.964 248.353 555.458 248.878 559.922C248.998 559.997 249.147 560.057 249.342 560.057C253.282 560.132 256.697 560.102 260.367 560.132C260.667 560.132 261.026 559.907 261.086 559.578C261.146 559.278 261.191 558.994 261.251 558.694C261.461 558.604 260.667 558.11 261.716 558.23C267.033 558.829 272.396 559.233 277.789 559.323C282.343 559.398 289.129 560.162 293.503 557.945C293.788 557.795 294.042 557.57 294.177 557.271C294.657 556.192 294.477 554.919 293.698 554.08Z" fill="#0D0C19"/>
<path d="M254.84 550.051C250.99 549.077 248.054 549.841 244.923 546.68C244.713 546.47 244.518 546.231 244.309 546.021C242.421 544.238 240.744 542.246 239.35 540.074C238.272 538.636 237.763 536.943 237.208 533.513C233.239 531.85 224.61 529.603 221.015 527.221C220.446 526.847 219.787 526.517 219.262 526.262C218.738 526.023 218.109 526.277 217.914 526.832C216.266 531.79 214.738 538.831 213.795 543.699C213.72 544.059 213.899 544.313 213.899 544.478V544.658C213.899 544.688 213.914 544.703 213.914 544.733C217.435 546.905 221.629 547.834 225.629 548.972C225.853 548.403 226.033 547.744 226.513 547.354C226.707 547.204 226.902 547.144 227.097 547.115C227.112 547.07 227.127 547.01 227.127 546.965C227.846 547.189 228.58 547.429 229.299 547.654C232.13 549.017 235.021 550.305 237.957 551.444C241.223 552.702 245.762 555.039 249.672 554.904C259.588 555.818 256.652 550.5 254.84 550.051Z" fill="#0D0C19"/>
<path d="M83.4686 329.17C84.2475 328.541 85.1463 328.122 86.0901 327.852C89.3857 328.511 92.7112 330.159 94.1643 331.672C99.4223 337.125 100.681 346.278 102.763 353.273C107.991 370.905 110.912 387.053 115.81 406.767C116.709 410.347 119.211 428.188 128.289 431.589C140.782 435.259 153.934 434.854 166.697 437.311C171.491 438.24 193.212 443.318 184.868 451.842C183.131 453.624 179.505 452.276 178.502 452.77C177.258 453.385 175.805 453.4 174.412 453.4C161.919 453.43 149.426 453.445 136.947 453.475C132.858 453.49 132.858 453.49 128.513 453.475C128.289 453.025 113.114 452.576 110.702 435.663C107.137 422.466 100.98 409.164 96.5012 396.281C90.4942 379.039 85.1613 361.557 81.2066 343.731C80.0382 338.683 79.409 332.421 83.4686 329.17Z" fill="#E2E9FB"/>
<path d="M126.087 552.193L123.076 452.696L125.727 452.606L128.753 552.193H126.087Z" fill="#0D0C19"/>
<path d="M195.489 552.193L163.012 453.1L165.514 452.201L198.545 552.193H195.489Z" fill="#0D0C19"/>
<path d="M116.524 451.339L116.491 454.005L184.883 454.853L184.916 452.187L116.524 451.339Z" fill="#0D0C19"/>
<path d="M179.91 454.913C179.296 452.441 177.918 446.689 176.539 440.936C175.161 435.184 173.783 429.447 173.169 426.975C170.053 414.407 166.488 402.602 157.065 396.206C152.706 393.24 147.463 391.787 142.385 390.394C136.678 388.821 125.937 385.705 115.541 382.694C105.16 379.683 94.434 376.582 88.7416 375.009L89.4456 372.448C95.153 374.021 105.894 377.136 116.275 380.147C126.656 383.158 137.412 386.259 143.089 387.847C148.122 389.24 153.83 390.828 158.548 394.034C168.75 400.955 172.495 413.268 175.73 426.361C176.345 428.832 177.723 434.585 179.101 440.337C180.479 446.089 181.857 451.827 182.471 454.298L179.91 454.913Z" fill="#0D0C19"/>
<path opacity="0.42" d="M232.25 276.815C231.186 280.111 230.647 283.526 230.587 287.002C230.542 289.893 235.036 289.893 235.081 287.002C235.126 283.916 235.635 280.95 236.579 278.014C237.478 275.242 233.134 274.059 232.25 276.815Z" fill="white"/>
<path d="M194.141 267.902C193.961 267.842 193.796 267.782 193.617 267.738C193.407 267.468 183.715 266.584 179.895 267.977C176.569 269.176 174.877 272.426 173.483 275.437C173.379 275.677 172.39 278.463 172.255 280.306C174.337 280.156 176.195 278.388 177.393 276.156C178.861 273.37 179.79 270.359 183.116 269.355C186.067 268.472 189.617 268.591 192.658 268.337C193.227 268.277 193.721 268.112 194.141 267.902Z" fill="#3A394A"/>
<path d="M149.98 319.284C149.081 321.246 147.059 326.384 144.467 333.185C145.86 333.35 147.268 332.856 147.928 331.403C150.19 326.414 152.601 320.812 156.211 316.632C159.642 312.663 163.642 311.764 164.66 306.071C164.735 305.637 164.72 305.232 164.675 304.843C164.6 304.843 164.51 304.843 164.436 304.843C163.746 304.873 162.503 304.783 161.889 305.158C161.05 305.667 160.795 307.105 160.301 307.884C159.237 309.592 155.298 307.764 149.98 319.284Z" fill="#E3B246"/>
<path d="M374.964 551.728L353.094 381.93L357.048 381.421L378.919 551.728H374.964Z" fill="#0D0C19"/>
<path d="M332.975 551.728H329.006L350.877 381.421L354.846 381.93L332.975 551.728Z" fill="#0D0C19"/>
<path d="M221.989 384.162H484.453C485.397 384.162 486.146 383.398 486.146 382.469C486.146 381.526 485.382 380.777 484.453 380.777H221.989C221.045 380.777 220.296 381.541 220.296 382.469C220.281 383.398 221.045 384.162 221.989 384.162Z" fill="#0D0C19"/>
<path d="M221.989 381.076C222.124 381.076 222.258 381.091 222.393 381.091C222.723 381.091 223.052 381.091 223.382 381.091C223.906 381.091 224.43 381.091 224.94 381.091C225.644 381.091 226.348 381.091 227.052 381.091C227.936 381.091 228.805 381.091 229.688 381.091C230.737 381.091 231.771 381.091 232.819 381.091C234.018 381.091 235.231 381.091 236.429 381.091C237.778 381.091 239.126 381.091 240.489 381.091C241.987 381.091 243.47 381.091 244.968 381.091C246.586 381.091 248.219 381.091 249.851 381.091C251.604 381.091 253.357 381.091 255.094 381.091C256.967 381.091 258.824 381.091 260.697 381.091C262.674 381.091 264.637 381.091 266.614 381.091C268.681 381.091 270.764 381.091 272.831 381.091C274.988 381.091 277.16 381.091 279.317 381.091C281.564 381.091 283.811 381.091 286.058 381.091C288.38 381.091 290.702 381.091 293.024 381.091C295.406 381.091 297.802 381.091 300.184 381.091C302.626 381.091 305.068 381.091 307.524 381.091C310.026 381.091 312.513 381.091 315.014 381.091C317.546 381.091 320.078 381.091 322.624 381.091C325.186 381.091 327.762 381.091 330.324 381.091C332.916 381.091 335.507 381.091 338.099 381.091C340.705 381.091 343.312 381.091 345.918 381.091C348.54 381.091 351.146 381.091 353.768 381.091C356.389 381.091 358.996 381.091 361.617 381.091C364.224 381.091 366.83 381.091 369.437 381.091C372.028 381.091 374.62 381.091 377.211 381.091C379.773 381.091 382.335 381.091 384.911 381.091C387.443 381.091 389.974 381.091 392.506 381.091C394.993 381.091 397.479 381.091 399.966 381.091C402.408 381.091 404.835 381.091 407.276 381.091C409.658 381.091 412.04 381.091 414.407 381.091C416.714 381.091 419.036 381.091 421.342 381.091C423.575 381.091 425.807 381.091 428.054 381.091C430.211 381.091 432.353 381.091 434.51 381.091C436.562 381.091 438.629 381.091 440.682 381.091C442.644 381.091 444.606 381.091 446.554 381.091C448.411 381.091 450.254 381.091 452.111 381.091C453.849 381.091 455.572 381.091 457.309 381.091C458.912 381.091 460.53 381.091 462.133 381.091C463.601 381.091 465.084 381.091 466.552 381.091C467.885 381.091 469.219 381.091 470.552 381.091C471.735 381.091 472.919 381.091 474.102 381.091C475.121 381.091 476.139 381.091 477.173 381.091C478.027 381.091 478.881 381.091 479.735 381.091C480.409 381.091 481.098 381.091 481.772 381.091C482.266 381.091 482.761 381.076 483.255 381.091C484.678 381.136 485.682 380.777 486.071 381.9C486.011 381.75 486.026 381.391 486.011 381.211C485.981 380.986 485.936 380.717 485.816 380.522C485.622 380.207 485.307 379.968 484.978 379.803C484.678 379.653 484.393 379.668 484.079 379.668C483.749 379.668 483.42 379.668 483.09 379.668C482.566 379.668 482.041 379.668 481.532 379.668C480.828 379.668 480.124 379.668 479.42 379.668C478.536 379.668 477.667 379.668 476.783 379.668C475.735 379.668 474.701 379.668 473.653 379.668C472.454 379.668 471.256 379.668 470.042 379.668C468.694 379.668 467.346 379.668 465.983 379.668C464.485 379.668 463.002 379.668 461.504 379.668C459.886 379.668 458.253 379.668 456.635 379.668C454.883 379.668 453.13 379.668 451.392 379.668C449.52 379.668 447.662 379.668 445.79 379.668C443.813 379.668 441.85 379.668 439.873 379.668C437.806 379.668 435.723 379.668 433.656 379.668C431.499 379.668 429.327 379.668 427.17 379.668C424.923 379.668 422.676 379.668 420.429 379.668C418.107 379.668 415.785 379.668 413.463 379.668C411.081 379.668 408.684 379.668 406.303 379.668C403.861 379.668 401.419 379.668 398.962 379.668C396.461 379.668 393.974 379.668 391.472 379.668C388.941 379.668 386.394 379.668 383.863 379.668C381.301 379.668 378.724 379.668 376.163 379.668C373.571 379.668 370.98 379.668 368.388 379.668C365.782 379.668 363.175 379.668 360.569 379.668C357.947 379.668 355.341 379.668 352.719 379.668C350.098 379.668 347.491 379.668 344.87 379.668C342.263 379.668 339.657 379.668 337.05 379.668C334.459 379.668 331.867 379.668 329.275 379.668C326.714 379.668 324.152 379.668 321.576 379.668C319.044 379.668 316.512 379.668 313.981 379.668C311.494 379.668 309.007 379.668 306.521 379.668C304.079 379.668 301.652 379.668 299.211 379.668C296.829 379.668 294.447 379.668 292.08 379.668C289.773 379.668 287.451 379.668 285.144 379.668C282.912 379.668 280.665 379.668 278.433 379.668C276.276 379.668 274.134 379.668 271.977 379.668C269.91 379.668 267.857 379.668 265.79 379.668C263.828 379.668 261.865 379.668 259.918 379.668C258.061 379.668 256.218 379.668 254.36 379.668C252.623 379.668 250.9 379.668 249.162 379.668C247.56 379.668 245.942 379.668 244.339 379.668C242.871 379.668 241.388 379.668 239.92 379.668C238.587 379.668 237.253 379.668 235.92 379.668C234.737 379.668 233.553 379.668 232.37 379.668C231.351 379.668 230.318 379.668 229.299 379.668C228.445 379.668 227.591 379.668 226.737 379.668C226.063 379.668 225.374 379.668 224.7 379.668C224.206 379.668 223.711 379.668 223.217 379.668C222.917 379.668 222.603 379.668 222.303 379.668C222.198 379.668 222.094 379.668 221.989 379.668C221.524 379.668 220.7 379.713 220.386 380.147C220.071 380.582 220.101 381.271 220.176 381.765C220.191 381.825 220.206 381.885 220.251 381.9C220.311 381.915 220.371 381.87 220.401 381.825C220.611 381.615 220.82 381.391 221.075 381.241C221.36 381.076 221.674 381.061 221.989 381.076Z" fill="#5D5A7D"/>
<path d="M348.854 378.11L347.626 377.586C348.345 375.923 349.079 374.2 349.528 372.418L349.618 372.013C349.768 371.369 349.933 370.695 350.262 370.066L351.446 370.68C351.191 371.174 351.056 371.729 350.921 372.328L350.817 372.747C350.352 374.62 349.588 376.387 348.854 378.11Z" fill="#C4D3FB"/>
<path d="M344.84 379.368C344.81 378.53 344.78 377.226 344.735 375.908C344.705 374.605 344.675 373.317 344.63 372.478C344.63 372.298 344.645 371.968 344.9 371.714L345.094 371.504L345.469 371.474L345.439 372.807L345.454 372.148L345.843 372.657C345.933 372.568 345.963 372.463 345.963 372.433C345.993 373.272 346.023 374.575 346.068 375.878C346.098 377.181 346.128 378.47 346.173 379.309L344.84 379.368Z" fill="#C4D3FB"/>
<path d="M381.121 355.401C381.121 359.895 386.364 359.895 386.364 355.401V347.881C386.379 344.151 381.121 355.401 381.121 355.401Z" fill="#F0B52B"/>
<path d="M388.746 376.732H378.17V361.752C378.17 360.239 379.399 359.011 380.912 359.011H386.005C387.518 359.011 388.746 360.239 388.746 361.752V376.732Z" fill="#FBFBFB"/>
<path d="M384.132 359.011L383.143 358.906C383.263 356.898 383.173 355.46 383.473 353.243L384.477 353.258C384.432 355.176 384.312 357.108 384.132 359.011Z" fill="#1E1D3D"/>
<path d="M374.845 377.406H362.097V340.765C362.097 338.533 363.909 336.735 366.126 336.735H370.8C373.032 336.735 374.83 338.548 374.83 340.765V377.406H374.845Z" fill="#942254"/>
<path d="M370.186 319.299H366.725V347.551H370.186V319.299Z" fill="#942254"/>
<path d="M405.853 376.372H321.965V379.368H405.853V376.372Z" fill="white"/>
<path opacity="0.42" d="M364.823 339.881C363.969 341.065 364.059 342.473 364.074 343.881C364.104 345.813 364.119 347.731 364.149 349.663C364.179 351.596 367.175 351.596 367.145 349.663C367.13 348.195 367.115 346.712 367.085 345.244C367.07 344.136 366.725 342.338 367.415 341.394C368.538 339.821 365.946 338.323 364.823 339.881Z" fill="white"/>
<path d="M360.733 366.68C360.239 366.231 359.52 366.261 358.831 366.186C358.921 366.051 359.011 365.901 359.086 365.767C359.655 364.838 360.239 363.669 359.655 362.741C359.295 362.156 358.576 361.932 357.887 361.992C357.947 361.887 358.022 361.797 358.082 361.692C358.711 360.733 359.295 359.685 359.28 358.546C359.235 356.928 357.962 356.12 356.809 355.236C357.288 354.562 357.722 353.858 358.097 353.124C358.471 352.36 358.741 351.311 358.082 350.757C357.603 350.352 356.869 350.487 356.284 350.727C355.865 350.907 355.475 351.116 355.116 351.371C355.715 349.064 357.827 346.008 355.55 344.54C355.056 344.225 354.427 344.195 353.858 344.27C352.345 344.48 350.996 345.364 349.978 346.487C348.075 348.555 347.761 350.442 347.206 353.019C347.072 353.678 346.847 354.532 346.682 355.4C346.113 354.696 345.394 354.112 344.615 353.678C344.435 353.528 344.24 353.378 344.061 353.243C343.911 353.139 343.716 353.139 343.536 353.183C343.506 353.168 343.461 353.154 343.432 353.139C343.117 353.034 342.742 353.213 342.593 353.483C340.975 356.209 341.934 358.711 343.057 361.258C343.132 361.812 343.222 362.366 343.327 362.92C343.027 362.651 342.668 362.531 342.233 362.666C340.885 363.115 340.66 365.647 340.84 366.77C341.065 368.283 341.949 369.542 343.192 370.366C343.027 370.56 343.027 370.815 343.132 371.055C342.398 371.534 342.233 372.013 343.357 372.478C348.165 374.485 356.449 373.721 360.089 369.991C360.539 369.542 360.958 369.032 361.138 368.418C361.303 367.834 361.213 367.1 360.733 366.68Z" fill="#C4D3FB"/>
<path d="M351.685 360.778C350.936 360.044 350.023 359.73 349.049 359.58C349.843 358.157 350.098 356.419 349.723 354.666C349.438 353.318 348.689 352.075 347.147 352.09C347.701 349.483 348.105 347.416 348.15 344.72C348.27 343.656 348.36 342.578 348.405 341.514C348.495 339.282 348.39 335.747 345.304 335.867C340.87 336.046 340.406 342.548 340.421 347.925C339.222 346.038 337.634 344.585 335.417 345.049C335.282 345.079 335.178 345.124 335.073 345.169C334.998 345.154 331.268 346.847 333.844 351.805C334.114 352.33 334.354 352.839 334.698 353.303C334.698 353.363 334.713 353.408 334.713 353.468C334.174 353.483 333.62 353.648 333.065 354.082C331.657 355.131 331.492 356.779 331.897 358.396C330.084 358.127 328.197 360.509 329.156 362.501C330.848 366.006 336.181 370.575 339.866 372.103C343.686 373.691 348.585 368.748 348.6 368.718C348.809 368.598 354.532 363.594 351.685 360.778Z" fill="#FBFBFB"/>
<path d="M340.091 378.739L338.788 378.515C340.106 370.935 341.2 363.22 342.038 355.565L343.357 355.715C342.503 363.385 341.409 371.144 340.091 378.739Z" fill="#FBFBFB"/>
<path d="M406.288 379.653L358.412 421.927L310.535 379.368L406.288 379.653Z" fill="#7481AD"/>
</svg>
